<svg version="1.2" xmlns="http://www.w3.org/2000/svg" viewBox="0 0 1500 1000" width="1500" height="1000">
	<title>10091769</title>
	<defs>
		<radialGradient id="g1" cx="0" cy="0" r="1" gradientUnits="userSpaceOnUse" gradientTransform="matrix(1171.277,0,0,1171.277,750,500)">
			<stop offset="0" stop-color="#388e3a"/>
			<stop offset=".765" stop-color="#1f471a"/>
			<stop offset="1" stop-color="#1b4216"/>
		</radialGradient>
		<radialGradient id="g2" cx="0" cy="0" r="1" gradientUnits="userSpaceOnUse" gradientTransform="matrix(817.519,0,0,817.519,750,500)">
			<stop offset="0" stop-color="#54c654"/>
			<stop offset="1" stop-color="#000000"/>
		</radialGradient>
	</defs>
	<style>
		.s0 { fill: url(#g1) } 
		.s1 { fill: #1b4216 } 
		.s2 { mix-blend-mode: screen;fill: url(#g2) } 
	</style>
	<g id="BACKGROUND">
		<g id="&lt;Group&gt;">
			<path id="&lt;Path&gt;" class="s0" d="m1500 1000h-1500v-1000h1500z"/>
			<g id="&lt;Group&gt;" style="opacity: .15;mix-blend-mode: multiply">
				<path id="&lt;Path&gt;" class="s1" d="m668.74 37.66c10.65-14.04 23.01-26.68 36.78-37.66h-73.56c13.76 10.98 26.13 23.62 36.78 37.66z"/>
				<path id="&lt;Path&gt;" class="s1" d="m627.85 332.14c15.43 11.7 29.18 25.46 40.89 40.88 11.7-15.42 25.45-29.18 40.88-40.88-15.43-11.71-29.18-25.46-40.88-40.89-11.71 15.43-25.46 29.18-40.89 40.89z"/>
				<path id="&lt;Path&gt;" class="s1" d="m722.81 229.2c-5.41 5.84-7.6 11.9-7.6 17.82 0 21.66 29.07 41.88 35.74 46.25q0.41 0.24 0.68 0.43 0.28-0.19 0.68-0.43c6.67-4.37 35.74-24.59 35.74-46.25 0-5.92-2.18-11.98-7.59-17.82-7.81-10.01-20.55-10.01-28.35 0l-0.48 0.59-0.47-0.59c-7.8-10.01-20.55-10.01-28.35 0z"/>
				<path id="&lt;Path&gt;" class="s1" d="m563.66 235.66c0 2.29 0.41 4.49 1.12 6.54q-1.53-0.25-3.13-0.26c-10.3 0-18.64 7.66-18.64 17.1 0 9.45 8.34 17.1 18.64 17.1 6.64 0 12.46-3.2 15.76-8 1.26 5.53 0.81 13.07-6.85 20.11h12.5 1.65 12.49c-7.5-6.9-8.08-14.28-6.91-19.77 3.34 4.62 9.05 7.66 15.54 7.66 10.29 0 18.64-7.65 18.64-17.1 0-9.44-8.35-17.1-18.64-17.1q-1.61 0.01-3.14 0.26c0.72-2.05 1.13-4.25 1.13-6.54 0-11.01-8.99-19.94-20.08-19.94-11.09 0-20.08 8.93-20.08 19.94z"/>
				<path id="&lt;Path&gt;" class="s1" d="m647.18 188.05c6.65 0 12.45-3.19 15.75-7.99 1.27 5.52 0.82 13.06-6.84 20.1h10.28 2.61 10.27c-7.66-7.04-8.11-14.58-6.83-20.1 3.29 4.8 9.1 7.99 15.75 7.99 10.29 0 17.04-11.38 13.38-19.8-8.63-19.79-25.98-35.19-32.57-40.56q-0.74-0.59-1.3-1.03c-0.37 0.27-0.8 0.64-1.31 1.03-6.59 5.37-23.95 20.79-32.57 40.56-3.67 8.42 3.08 19.8 13.38 19.8z"/>
				<path id="&lt;Path&gt;" class="s1" d="m1003.6 37.66c10.65-14.04 23.02-26.68 36.78-37.66h-73.56c13.76 10.98 26.13 23.62 36.78 37.66z"/>
				<path id="&lt;Path&gt;" class="s1" d="m962.71 332.14c15.43 11.7 29.19 25.46 40.89 40.88 11.7-15.42 25.46-29.18 40.88-40.88-15.42-11.71-29.18-25.46-40.88-40.89-11.7 15.43-25.46 29.18-40.89 40.89z"/>
				<path id="&lt;Path&gt;" class="s1" d="m1057.67 229.2c-5.41 5.84-7.59 11.9-7.59 17.82 0 21.66 29.07 41.88 35.74 46.25q0.4 0.24 0.68 0.43 0.27-0.19 0.68-0.43c6.67-4.37 35.74-24.59 35.74-46.25 0-5.92-2.19-11.98-7.6-17.82-7.8-10.01-20.55-10.01-28.35 0l-0.47 0.59-0.48-0.59c-7.8-10.01-20.54-10.01-28.35 0z"/>
				<path id="&lt;Path&gt;" class="s1" d="m898.52 235.66c0 2.29 0.41 4.49 1.13 6.54q-1.53-0.25-3.14-0.26c-10.29 0-18.64 7.66-18.64 17.1 0 9.45 8.35 17.1 18.64 17.1 6.65 0 12.46-3.2 15.76-8 1.26 5.53 0.81 13.07-6.85 20.11h12.5 1.65 12.5c-7.51-6.9-8.08-14.28-6.92-19.77 3.34 4.62 9.05 7.66 15.54 7.66 10.29 0 18.64-7.65 18.64-17.1 0-9.44-8.35-17.1-18.64-17.1q-1.61 0.01-3.14 0.26c0.72-2.05 1.13-4.25 1.13-6.54 0-11.01-8.99-19.94-20.08-19.94-11.09 0-20.08 8.93-20.08 19.94z"/>
				<path id="&lt;Path&gt;" class="s1" d="m982.04 188.05c6.65 0 12.46-3.19 15.75-7.99 1.28 5.52 0.82 13.06-6.84 20.1h10.28 2.61 10.28c-7.66-7.04-8.12-14.58-6.84-20.1 3.29 4.8 9.1 7.99 15.75 7.99 10.29 0 17.05-11.38 13.38-19.8-8.62-19.79-25.98-35.19-32.57-40.56q-0.74-0.59-1.29-1.03c-0.38 0.27-0.81 0.64-1.32 1.03-6.59 5.37-23.95 20.79-32.57 40.56-3.67 8.42 3.09 19.8 13.38 19.8z"/>
				<path id="&lt;Path&gt;" class="s1" d="m668.74 702.8c11.7-15.43 25.45-29.18 40.88-40.89-15.43-11.7-29.18-25.46-40.88-40.88-11.71 15.42-25.46 29.18-40.89 40.88 15.43 11.71 29.18 25.46 40.89 40.89z"/>
				<path id="&lt;Path&gt;" class="s1" d="m751.63 623.47q0.28-0.18 0.68-0.43c6.67-4.36 35.74-24.58 35.74-46.24 0-5.93-2.18-11.98-7.59-17.83-7.81-10-20.55-10-28.35 0l-0.48 0.6-0.47-0.6c-7.8-10-20.55-10-28.35 0-5.41 5.85-7.6 11.9-7.6 17.83 0 21.66 29.07 41.88 35.74 46.24q0.41 0.25 0.68 0.43z"/>
				<path id="&lt;Path&gt;" class="s1" d="m597.2 618.03c-7.5-6.9-8.08-14.28-6.91-19.78 3.34 4.62 9.05 7.67 15.54 7.67 10.29 0 18.64-7.66 18.64-17.1 0-9.45-8.35-17.11-18.64-17.11q-1.61 0.02-3.14 0.27c0.72-2.06 1.13-4.25 1.13-6.54 0-11.02-8.99-19.95-20.08-19.95-11.09 0-20.08 8.93-20.08 19.95 0 2.29 0.41 4.48 1.12 6.54q-1.53-0.25-3.13-0.27c-10.3 0-18.64 7.66-18.64 17.11 0 9.44 8.34 17.1 18.64 17.1 6.64 0 12.46-3.2 15.76-8 1.26 5.52 0.81 13.07-6.85 20.11h12.5 1.65z"/>
				<path id="&lt;Path&gt;" class="s1" d="m679.25 529.93c-7.66-7.04-8.11-14.57-6.83-20.09 3.29 4.8 9.1 7.99 15.75 7.99 10.29 0 17.04-11.39 13.38-19.81-8.63-19.78-25.98-35.18-32.57-40.56q-0.74-0.59-1.3-1.03c-0.37 0.27-0.8 0.64-1.31 1.03-6.59 5.38-23.95 20.8-32.57 40.56-3.67 8.42 3.08 19.81 13.38 19.81 6.65 0 12.45-3.19 15.75-7.99 1.27 5.52 0.82 13.05-6.84 20.09h10.28 2.61z"/>
				<path id="&lt;Path&gt;" class="s1" d="m1003.6 702.8c11.7-15.43 25.46-29.18 40.88-40.89-15.42-11.7-29.18-25.46-40.88-40.88-11.7 15.42-25.46 29.18-40.89 40.88 15.43 11.71 29.19 25.46 40.89 40.89z"/>
				<path id="&lt;Path&gt;" class="s1" d="m1086.5 623.47q0.27-0.18 0.68-0.43c6.67-4.36 35.74-24.58 35.74-46.24 0-5.93-2.19-11.98-7.6-17.83-7.8-10-20.55-10-28.35 0l-0.47 0.6-0.48-0.6c-7.8-10-20.54-10-28.35 0-5.41 5.85-7.59 11.9-7.59 17.83 0 21.66 29.07 41.88 35.74 46.24q0.4 0.25 0.68 0.43z"/>
				<path id="&lt;Path&gt;" class="s1" d="m905.42 618.03h12.5 1.65 12.5c-7.51-6.9-8.08-14.28-6.92-19.78 3.34 4.62 9.05 7.67 15.54 7.67 10.29 0 18.64-7.66 18.64-17.1 0-9.45-8.35-17.11-18.64-17.11q-1.61 0.02-3.14 0.27c0.72-2.06 1.13-4.25 1.13-6.54 0-11.02-8.99-19.95-20.08-19.95-11.09 0-20.08 8.93-20.08 19.95 0 2.29 0.41 4.48 1.13 6.54q-1.53-0.25-3.14-0.27c-10.29 0-18.64 7.66-18.64 17.11 0 9.44 8.35 17.1 18.64 17.1 6.65 0 12.46-3.2 15.76-8 1.26 5.52 0.81 13.07-6.85 20.11z"/>
				<path id="&lt;Path&gt;" class="s1" d="m990.95 529.93h10.28 2.61 10.28c-7.66-7.04-8.12-14.57-6.84-20.09 3.29 4.8 9.1 7.99 15.75 7.99 10.29 0 17.05-11.39 13.38-19.81-8.62-19.78-25.98-35.18-32.57-40.56q-0.74-0.59-1.29-1.03c-0.38 0.27-0.81 0.64-1.32 1.03-6.59 5.38-23.95 20.8-32.57 40.56-3.67 8.42 3.09 19.81 13.38 19.81 6.65 0 12.46-3.19 15.75-7.99 1.28 5.52 0.82 13.05-6.84 20.09z"/>
				<path id="&lt;Path&gt;" class="s1" d="m1209.66 498.24c-15.42-11.71-29.18-25.46-40.88-40.89-11.7 15.43-25.46 29.18-40.89 40.89 15.43 11.7 29.19 25.45 40.89 40.88 11.7-15.43 25.46-29.18 40.88-40.88z"/>
				<path id="&lt;Path&gt;" class="s1" d="m1251.67 459.8q0.28-0.19 0.68-0.44c6.68-4.36 35.75-24.58 35.75-46.24 0-5.93-2.19-11.98-7.6-17.83-7.8-10-20.55-10-28.35 0l-0.48 0.6-0.47-0.6c-7.8-10-20.55-10-28.35 0-5.41 5.85-7.59 11.9-7.59 17.83 0 21.66 29.07 41.88 35.74 46.24q0.4 0.25 0.67 0.44z"/>
				<path id="&lt;Path&gt;" class="s1" d="m1070.6 454.35h12.5 1.65 12.5c-7.51-6.9-8.09-14.28-6.92-19.77 3.34 4.61 9.05 7.66 15.54 7.66 10.29 0 18.64-7.65 18.64-17.1 0-9.45-8.35-17.1-18.64-17.1q-1.61 0.01-3.14 0.26c0.72-2.05 1.13-4.25 1.13-6.54 0-11.02-8.99-19.94-20.08-19.94-11.09 0-20.08 8.92-20.08 19.94 0 2.29 0.41 4.49 1.13 6.54q-1.53-0.25-3.14-0.26c-10.29 0-18.64 7.65-18.64 17.1 0 9.45 8.35 17.1 18.64 17.1 6.64 0 12.46-3.2 15.76-8 1.26 5.53 0.81 13.07-6.85 20.11z"/>
				<path id="&lt;Path&gt;" class="s1" d="m1133.84 334.34c-3.67 8.43 3.09 19.81 13.38 19.81 6.65 0 12.45-3.19 15.75-7.99 1.28 5.52 0.82 13.05-6.84 20.1h10.28 2.61 10.28c-7.66-7.05-8.12-14.58-6.84-20.1 3.29 4.8 9.1 7.99 15.75 7.99 10.29 0 17.05-11.38 13.38-19.81-8.62-19.78-25.98-35.18-32.57-40.55q-0.74-0.6-1.3-1.03c-0.37 0.26-0.8 0.64-1.31 1.03-6.59 5.37-23.95 20.79-32.57 40.55z"/>
				<path id="&lt;Path&gt;" class="s1" d="m1168.78 198.25c11.7-15.43 25.46-29.18 40.88-40.88-15.42-11.71-29.18-25.46-40.88-40.89-11.7 15.43-25.46 29.18-40.89 40.89 15.43 11.7 29.19 25.45 40.89 40.88z"/>
				<path id="&lt;Path&gt;" class="s1" d="m1251.67 118.93q0.28-0.19 0.68-0.44c6.68-4.36 35.75-24.58 35.75-46.24 0-5.93-2.19-11.98-7.6-17.82-7.8-10.01-20.55-10.01-28.35 0l-0.48 0.59-0.47-0.59c-7.8-10.01-20.55-10.01-28.35 0-5.41 5.84-7.59 11.89-7.59 17.82 0 21.66 29.07 41.88 35.74 46.24q0.4 0.25 0.67 0.44z"/>
				<path id="&lt;Path&gt;" class="s1" d="m1070.6 113.48h12.5 1.65 12.5c-7.51-6.9-8.09-14.28-6.92-19.77 3.34 4.61 9.05 7.66 15.54 7.66 10.29 0 18.64-7.65 18.64-17.1 0-9.45-8.35-17.1-18.64-17.1q-1.61 0.01-3.14 0.26c0.72-2.05 1.13-4.25 1.13-6.54 0-11.01-8.99-19.94-20.08-19.94-11.09 0-20.08 8.93-20.08 19.94 0 2.29 0.41 4.49 1.13 6.54q-1.53-0.25-3.14-0.26c-10.29 0-18.64 7.65-18.64 17.1 0 9.45 8.35 17.1 18.64 17.1 6.64 0 12.46-3.2 15.76-8 1.26 5.53 0.81 13.07-6.85 20.11z"/>
				<path id="&lt;Path&gt;" class="s1" d="m1147.22 13.28c6.65 0 12.45-3.19 15.75-7.99 1.28 5.52 0.82 13.06-6.84 20.1h10.28 2.61 10.28c-7.66-7.04-8.12-14.58-6.84-20.1 3.29 4.8 9.1 7.99 15.75 7.99 7.77 0 13.51-6.48 14.29-13.28h-69.57c0.78 6.8 6.52 13.28 14.29 13.28z"/>
				<path id="&lt;Path&gt;" class="s1" d="m1499.29 116.48c-11.71 15.43-25.46 29.18-40.89 40.89 15.43 11.7 29.18 25.45 40.89 40.88q0.35-0.45 0.71-0.9v-79.96q-0.36-0.45-0.71-0.91z"/>
				<path id="&lt;Path&gt;" class="s1" d="m1420.84 93.71c3.34 4.61 9.05 7.66 15.54 7.66 10.29 0 18.64-7.65 18.64-17.1 0-9.45-8.35-17.1-18.64-17.1q-1.61 0.01-3.14 0.26c0.72-2.05 1.13-4.25 1.13-6.54 0-11.01-8.99-19.94-20.08-19.94-11.09 0-20.08 8.93-20.08 19.94 0 2.29 0.41 4.49 1.13 6.54q-1.54-0.25-3.14-0.26c-10.3 0-18.64 7.65-18.64 17.1 0 9.45 8.34 17.1 18.64 17.1 6.64 0 12.46-3.2 15.76-8 1.26 5.53 0.81 13.07-6.85 20.11h12.5 1.65 12.5c-7.51-6.9-8.09-14.28-6.92-19.77z"/>
				<path id="&lt;Path&gt;" class="s1" d="m1477.73 13.28c6.65 0 12.45-3.19 15.75-7.99 1.27 5.52 0.82 13.06-6.84 20.1h10.28 2.61 0.47v-25.39h-36.56c0.78 6.8 6.52 13.28 14.29 13.28z"/>
				<path id="&lt;Path&gt;" class="s1" d="m1499.29 452.85c-11.71 15.42-25.46 29.18-40.89 40.88 15.43 11.7 29.18 25.46 40.89 40.89q0.35-0.46 0.71-0.91v-79.96q-0.36-0.45-0.71-0.9z"/>
				<path id="&lt;Path&gt;" class="s1" d="m1394.21 397.25c0 2.3 0.41 4.49 1.13 6.54q-1.54-0.25-3.14-0.26c-10.3 0-18.64 7.66-18.64 17.1 0 9.45 8.34 17.11 18.64 17.11 6.64 0 12.46-3.2 15.76-8 1.26 5.52 0.81 13.07-6.85 20.1h12.5 1.65 12.5c-7.51-6.89-8.09-14.27-6.92-19.77 3.34 4.62 9.05 7.67 15.54 7.67 10.29 0 18.64-7.66 18.64-17.11 0-9.44-8.35-17.1-18.64-17.1q-1.61 0.01-3.14 0.26c0.72-2.05 1.13-4.24 1.13-6.54 0-11.01-8.99-19.94-20.08-19.94-11.09 0-20.08 8.93-20.08 19.94z"/>
				<path id="&lt;Path&gt;" class="s1" d="m1498.23 288.25c-0.37 0.27-0.8 0.64-1.31 1.03-6.59 5.37-23.95 20.8-32.57 40.56-3.67 8.42 3.08 19.81 13.38 19.81 6.65 0 12.45-3.2 15.75-7.99 1.27 5.51 0.82 13.05-6.84 20.09h10.28 2.61 0.47v-72.08c-0.15-0.13-0.33-0.27-0.47-0.39q-0.74-0.59-1.3-1.03z"/>
				<path id="&lt;Path&gt;" class="s1" d="m1333.96 37.66c10.65-14.04 23.01-26.68 36.78-37.66h-73.56c13.76 10.98 26.13 23.62 36.78 37.66z"/>
				<path id="&lt;Path&gt;" class="s1" d="m1333.96 291.25c-11.71 15.43-25.46 29.18-40.89 40.89 15.43 11.7 29.18 25.46 40.89 40.88 11.7-15.42 25.46-29.18 40.88-40.88-15.42-11.71-29.18-25.46-40.88-40.89z"/>
				<path id="&lt;Path&gt;" class="s1" d="m1388.03 229.2c-5.41 5.84-7.6 11.9-7.6 17.82 0 21.66 29.07 41.88 35.74 46.25q0.41 0.24 0.68 0.43 0.28-0.19 0.68-0.43c6.67-4.37 35.74-24.59 35.74-46.25 0-5.92-2.18-11.98-7.59-17.82-7.81-10.01-20.55-10.01-28.35 0l-0.48 0.59-0.47-0.59c-7.8-10.01-20.55-10.01-28.35 0z"/>
				<path id="&lt;Path&gt;" class="s1" d="m1228.88 235.66c0 2.29 0.41 4.49 1.13 6.54q-1.54-0.25-3.14-0.26c-10.3 0-18.64 7.66-18.64 17.1 0 9.45 8.34 17.1 18.64 17.1 6.64 0 12.46-3.2 15.76-8 1.26 5.53 0.81 13.07-6.85 20.11h12.5 1.65 12.5c-7.51-6.9-8.09-14.28-6.92-19.77 3.34 4.62 9.05 7.66 15.54 7.66 10.29 0 18.64-7.65 18.64-17.1 0-9.44-8.35-17.1-18.64-17.1q-1.61 0.01-3.14 0.26c0.72-2.05 1.13-4.25 1.13-6.54 0-11.01-8.99-19.94-20.08-19.94-11.09 0-20.08 8.93-20.08 19.94z"/>
				<path id="&lt;Path&gt;" class="s1" d="m1312.4 188.05c6.65 0 12.45-3.19 15.75-7.99 1.27 5.52 0.82 13.06-6.84 20.1h10.28 2.61 10.27c-7.65-7.04-8.11-14.58-6.83-20.1 3.29 4.8 9.1 7.99 15.75 7.99 10.29 0 17.05-11.38 13.38-19.8-8.63-19.79-25.98-35.19-32.57-40.56q-0.74-0.59-1.3-1.03c-0.37 0.27-0.8 0.64-1.31 1.03-6.59 5.37-23.95 20.79-32.57 40.56-3.67 8.42 3.08 19.8 13.38 19.8z"/>
				<path id="&lt;Path&gt;" class="s1" d="m1374.84 661.91c-15.42-11.7-29.18-25.46-40.88-40.88-11.71 15.42-25.46 29.18-40.89 40.88 15.43 11.71 29.18 25.46 40.89 40.89 11.7-15.43 25.46-29.18 40.88-40.89z"/>
				<path id="&lt;Path&gt;" class="s1" d="m1388.03 558.97c-5.41 5.85-7.6 11.9-7.6 17.83 0 21.66 29.07 41.88 35.74 46.24q0.41 0.25 0.68 0.43 0.28-0.18 0.68-0.43c6.67-4.36 35.74-24.58 35.74-46.24 0-5.93-2.18-11.98-7.59-17.83-7.81-10-20.55-10-28.35 0l-0.48 0.6-0.47-0.6c-7.8-10-20.55-10-28.35 0z"/>
				<path id="&lt;Path&gt;" class="s1" d="m1262.43 618.03c-7.51-6.9-8.09-14.28-6.92-19.78 3.34 4.62 9.05 7.67 15.54 7.67 10.29 0 18.64-7.66 18.64-17.1 0-9.45-8.35-17.11-18.64-17.11q-1.61 0.02-3.14 0.27c0.72-2.06 1.13-4.25 1.13-6.54 0-11.02-8.99-19.95-20.08-19.95-11.09 0-20.08 8.93-20.08 19.95 0 2.29 0.41 4.48 1.13 6.54q-1.54-0.25-3.14-0.27c-10.3 0-18.64 7.66-18.64 17.11 0 9.44 8.34 17.1 18.64 17.1 6.64 0 12.46-3.2 15.76-8 1.26 5.52 0.81 13.07-6.85 20.11h12.5 1.65z"/>
				<path id="&lt;Path&gt;" class="s1" d="m1344.47 529.93c-7.65-7.04-8.11-14.57-6.83-20.09 3.29 4.8 9.1 7.99 15.75 7.99 10.29 0 17.05-11.39 13.38-19.81-8.63-19.78-25.98-35.18-32.57-40.56q-0.74-0.59-1.3-1.03c-0.37 0.27-0.8 0.64-1.31 1.03-6.59 5.38-23.95 20.8-32.57 40.56-3.67 8.42 3.08 19.81 13.38 19.81 6.65 0 12.45-3.19 15.75-7.99 1.27 5.52 0.82 13.05-6.84 20.09h10.28 2.61z"/>
				<path id="&lt;Path&gt;" class="s1" d="m1499.29 789.63c-11.71 15.42-25.46 29.18-40.89 40.88 15.43 11.7 29.18 25.46 40.89 40.89q0.35-0.46 0.71-0.91v-79.96q-0.36-0.45-0.71-0.9z"/>
				<path id="&lt;Path&gt;" class="s1" d="m1394.21 734.03c0 2.3 0.41 4.49 1.13 6.54q-1.54-0.25-3.14-0.26c-10.3 0-18.64 7.66-18.64 17.1 0 9.45 8.34 17.11 18.64 17.11 6.64 0 12.46-3.2 15.76-8 1.26 5.52 0.81 13.07-6.85 20.1h12.5 1.65 12.5c-7.51-6.89-8.09-14.27-6.92-19.77 3.34 4.62 9.05 7.67 15.54 7.67 10.29 0 18.64-7.66 18.64-17.11 0-9.44-8.35-17.1-18.64-17.1q-1.61 0.01-3.14 0.26c0.72-2.05 1.13-4.24 1.13-6.54 0-11.01-8.99-19.94-20.08-19.94-11.09 0-20.08 8.93-20.08 19.94z"/>
				<path id="&lt;Path&gt;" class="s1" d="m1498.23 625.03c-0.37 0.27-0.8 0.64-1.31 1.03-6.59 5.37-23.95 20.8-32.57 40.56-3.67 8.42 3.08 19.8 13.38 19.8 6.65 0 12.45-3.19 15.75-7.98 1.27 5.51 0.82 13.05-6.84 20.09h10.28 2.61 0.47v-72.08c-0.15-0.13-0.33-0.27-0.47-0.39q-0.74-0.59-1.3-1.03z"/>
				<path id="&lt;Path&gt;" class="s1" d="m1374.84 998.28c-15.42-11.71-29.18-25.46-40.88-40.89-11.71 15.43-25.46 29.18-40.89 40.89q1.1 0.85 2.19 1.72h77.39q1.09-0.87 2.19-1.72z"/>
				<path id="&lt;Path&gt;" class="s1" d="m1445.68 895.34c-7.81-10.01-20.55-10.01-28.35 0l-0.48 0.59-0.47-0.59c-7.8-10.01-20.55-10.01-28.35 0-5.41 5.84-7.6 11.9-7.6 17.83 0 21.65 29.07 41.87 35.74 46.24q0.41 0.24 0.68 0.43 0.28-0.19 0.68-0.43c6.67-4.37 35.74-24.59 35.74-46.24 0-5.93-2.18-11.99-7.59-17.83z"/>
				<path id="&lt;Path&gt;" class="s1" d="m1228.88 901.8c0 2.29 0.41 4.49 1.13 6.54q-1.54-0.25-3.14-0.26c-10.3 0-18.64 7.66-18.64 17.1 0 9.45 8.34 17.1 18.64 17.1 6.64 0 12.46-3.2 15.76-8 1.26 5.53 0.81 13.07-6.85 20.11h12.5 1.65 12.5c-7.51-6.9-8.09-14.28-6.92-19.77 3.34 4.62 9.05 7.66 15.54 7.66 10.29 0 18.64-7.65 18.64-17.1 0-9.44-8.35-17.1-18.64-17.1q-1.61 0.01-3.14 0.26c0.72-2.05 1.13-4.25 1.13-6.54 0-11.01-8.99-19.94-20.08-19.94-11.09 0-20.08 8.93-20.08 19.94z"/>
				<path id="&lt;Path&gt;" class="s1" d="m1366.77 834.39c-8.63-19.79-25.98-35.19-32.57-40.56q-0.74-0.59-1.3-1.03c-0.37 0.27-0.8 0.64-1.31 1.03-6.59 5.37-23.95 20.79-32.57 40.56-3.67 8.42 3.08 19.8 13.38 19.8 6.65 0 12.45-3.19 15.75-7.99 1.27 5.52 0.82 13.06-6.84 20.1h10.28 2.61 10.27c-7.65-7.04-8.11-14.58-6.83-20.1 3.29 4.8 9.1 7.99 15.75 7.99 10.29 0 17.05-11.38 13.38-19.8z"/>
				<path id="&lt;Path&gt;" class="s1" d="m668.74 949.8c-11.71 15.43-25.46 29.18-40.89 40.88q5.88 4.47 11.43 9.32h58.91q5.55-4.85 11.43-9.32c-15.43-11.7-29.18-25.45-40.88-40.88z"/>
				<path id="&lt;Path&gt;" class="s1" d="m722.81 887.74c-5.41 5.85-7.6 11.9-7.6 17.83 0 21.66 29.07 41.88 35.74 46.24q0.41 0.25 0.68 0.44 0.28-0.19 0.68-0.44c6.67-4.36 35.74-24.58 35.74-46.24 0-5.93-2.18-11.98-7.59-17.83-7.81-10-20.55-10-28.35 0l-0.48 0.6-0.47-0.6c-7.8-10-20.55-10-28.35 0z"/>
				<path id="&lt;Path&gt;" class="s1" d="m563.66 894.21c0 2.29 0.41 4.49 1.12 6.54q-1.53-0.25-3.13-0.26c-10.3 0-18.64 7.65-18.64 17.1 0 9.44 8.34 17.1 18.64 17.1 6.64 0 12.46-3.2 15.76-8 1.26 5.53 0.81 13.07-6.85 20.11h12.5 1.65 12.49c-7.5-6.9-8.08-14.28-6.91-19.77 3.34 4.61 9.05 7.66 15.54 7.66 10.29 0 18.64-7.66 18.64-17.1 0-9.45-8.35-17.1-18.64-17.1q-1.61 0.01-3.14 0.26c0.72-2.05 1.13-4.25 1.13-6.54 0-11.02-8.99-19.94-20.08-19.94-11.09 0-20.08 8.92-20.08 19.94z"/>
				<path id="&lt;Path&gt;" class="s1" d="m701.55 826.79c-8.63-19.78-25.98-35.18-32.57-40.55q-0.74-0.6-1.3-1.03c-0.37 0.26-0.8 0.63-1.31 1.03-6.59 5.37-23.95 20.79-32.57 40.55-3.67 8.42 3.08 19.81 13.38 19.81 6.65 0 12.45-3.19 15.75-7.99 1.27 5.52 0.82 13.05-6.84 20.09h10.28 2.61 10.27c-7.66-7.04-8.11-14.57-6.83-20.09 3.29 4.8 9.1 7.99 15.75 7.99 10.29 0 17.04-11.39 13.38-19.81z"/>
				<path id="&lt;Path&gt;" class="s1" d="m1003.6 949.8c-11.7 15.43-25.46 29.18-40.89 40.88q5.88 4.47 11.43 9.32h58.92q5.54-4.85 11.42-9.32c-15.42-11.7-29.18-25.45-40.88-40.88z"/>
				<path id="&lt;Path&gt;" class="s1" d="m1057.67 887.74c-5.41 5.85-7.59 11.9-7.59 17.83 0 21.66 29.07 41.88 35.74 46.24q0.4 0.25 0.68 0.44 0.27-0.19 0.68-0.44c6.67-4.36 35.74-24.58 35.74-46.24 0-5.93-2.19-11.98-7.6-17.83-7.8-10-20.55-10-28.35 0l-0.47 0.6-0.48-0.6c-7.8-10-20.54-10-28.35 0z"/>
				<path id="&lt;Path&gt;" class="s1" d="m898.52 894.21c0 2.29 0.41 4.49 1.13 6.54q-1.53-0.25-3.14-0.26c-10.29 0-18.64 7.65-18.64 17.1 0 9.44 8.35 17.1 18.64 17.1 6.65 0 12.46-3.2 15.76-8 1.26 5.53 0.81 13.07-6.85 20.11h12.5 1.65 12.5c-7.51-6.9-8.08-14.28-6.92-19.77 3.34 4.61 9.05 7.66 15.54 7.66 10.29 0 18.64-7.66 18.64-17.1 0-9.45-8.35-17.1-18.64-17.1q-1.61 0.01-3.14 0.26c0.72-2.05 1.13-4.25 1.13-6.54 0-11.02-8.99-19.94-20.08-19.94-11.09 0-20.08 8.92-20.08 19.94z"/>
				<path id="&lt;Path&gt;" class="s1" d="m1036.41 826.79c-8.62-19.78-25.98-35.18-32.57-40.55q-0.74-0.6-1.29-1.03c-0.38 0.26-0.81 0.63-1.32 1.03-6.59 5.37-23.95 20.79-32.57 40.55-3.67 8.42 3.09 19.81 13.38 19.81 6.65 0 12.46-3.19 15.75-7.99 1.28 5.52 0.82 13.05-6.84 20.09h10.28 2.61 10.28c-7.66-7.04-8.12-14.57-6.84-20.09 3.29 4.8 9.1 7.99 15.75 7.99 10.29 0 17.05-11.39 13.38-19.81z"/>
				<path id="&lt;Path&gt;" class="s1" d="m499.93 957.17q-0.74-0.59-1.3-1.03c-0.37 0.27-0.8 0.64-1.32 1.03-6.59 5.37-23.94 20.79-32.57 40.56q-0.46 1.11-0.7 2.27h69.16q-0.24-1.16-0.7-2.27c-8.63-19.79-25.98-35.19-32.57-40.56z"/>
				<path id="&lt;Path&gt;" class="s1" d="m499.68 786.62c-11.7 15.43-25.45 29.18-40.88 40.88 15.43 11.71 29.18 25.46 40.88 40.89 11.71-15.43 25.46-29.18 40.89-40.89-15.43-11.7-29.18-25.45-40.89-40.88z"/>
				<path id="&lt;Path&gt;" class="s1" d="m619 742.39c0-5.93-2.18-11.98-7.6-17.83-7.8-10-20.54-10-28.35 0l-0.47 0.6-0.47-0.6c-7.81-10-20.55-10-28.35 0-5.42 5.85-7.6 11.9-7.6 17.83 0 21.66 29.07 41.88 35.74 46.24q0.4 0.25 0.68 0.44 0.28-0.19 0.68-0.44c6.67-4.36 35.74-24.58 35.74-46.24z"/>
				<path id="&lt;Path&gt;" class="s1" d="m421.24 763.85c3.33 4.61 9.04 7.66 15.53 7.66 10.3 0 18.64-7.66 18.64-17.1 0-9.45-8.34-17.1-18.64-17.1q-1.6 0.01-3.13 0.26c0.72-2.05 1.13-4.25 1.13-6.54 0-11.02-8.99-19.94-20.08-19.94-11.09 0-20.09 8.92-20.09 19.94 0 2.29 0.41 4.49 1.13 6.54q-1.53-0.25-3.13-0.26c-10.3 0-18.64 7.65-18.64 17.1 0 9.44 8.34 17.1 18.64 17.1 6.64 0 12.46-3.2 15.76-8 1.26 5.53 0.8 13.07-6.85 20.11h12.5 1.64 12.5c-7.5-6.9-8.08-14.28-6.91-19.77z"/>
				<path id="&lt;Path&gt;" class="s1" d="m503.37 675.43c3.29 4.8 9.1 7.99 15.75 7.99 10.29 0 17.04-11.39 13.38-19.81-8.63-19.78-25.98-35.18-32.57-40.55q-0.74-0.6-1.3-1.03c-0.37 0.26-0.8 0.63-1.32 1.03-6.59 5.37-23.94 20.79-32.57 40.55-3.66 8.42 3.09 19.81 13.38 19.81 6.65 0 12.46-3.19 15.75-7.99 1.28 5.52 0.83 13.05-6.83 20.09h10.27 2.62 10.27c-7.66-7.04-8.11-14.57-6.83-20.09z"/>
				<path id="&lt;Path&gt;" class="s1" d="m540.57 503.15c-15.43-11.7-29.18-25.46-40.89-40.88-11.7 15.42-25.45 29.18-40.88 40.88 15.43 11.71 29.18 25.46 40.88 40.89 11.71-15.43 25.46-29.18 40.89-40.89z"/>
				<path id="&lt;Path&gt;" class="s1" d="m619 418.04c0-5.93-2.18-11.98-7.6-17.83-7.8-10-20.54-10-28.35 0l-0.47 0.6-0.47-0.6c-7.81-10-20.55-10-28.35 0-5.42 5.85-7.6 11.9-7.6 17.83 0 21.66 29.07 41.88 35.74 46.24q0.4 0.25 0.68 0.43 0.28-0.18 0.68-0.43c6.67-4.36 35.74-24.58 35.74-46.24z"/>
				<path id="&lt;Path&gt;" class="s1" d="m421.24 439.49c3.33 4.62 9.04 7.67 15.53 7.67 10.3 0 18.64-7.66 18.64-17.1 0-9.45-8.34-17.11-18.64-17.11q-1.6 0.02-3.13 0.27c0.72-2.06 1.13-4.25 1.13-6.55 0-11.01-8.99-19.94-20.08-19.94-11.09 0-20.09 8.93-20.09 19.94 0 2.3 0.41 4.49 1.13 6.55q-1.53-0.25-3.13-0.27c-10.3 0-18.64 7.66-18.64 17.11 0 9.44 8.34 17.1 18.64 17.1 6.64 0 12.46-3.2 15.76-8 1.26 5.52 0.8 13.07-6.85 20.11h12.5 1.64 12.5c-7.5-6.9-8.08-14.28-6.91-19.78z"/>
				<path id="&lt;Path&gt;" class="s1" d="m498.63 297.67c-0.37 0.27-0.8 0.64-1.32 1.03-6.59 5.38-23.94 20.8-32.57 40.56-3.66 8.42 3.09 19.81 13.38 19.81 6.65 0 12.46-3.19 15.75-7.99 1.28 5.52 0.83 13.05-6.83 20.09h10.27 2.62 10.27c-7.66-7.04-8.11-14.57-6.83-20.09 3.29 4.8 9.1 7.99 15.75 7.99 10.29 0 17.04-11.39 13.38-19.81-8.63-19.78-25.98-35.18-32.57-40.56q-0.74-0.59-1.3-1.03z"/>
				<path id="&lt;Path&gt;" class="s1" d="m499.68 204.49c11.71-15.42 25.46-29.18 40.89-40.88-15.43-11.71-29.18-25.46-40.89-40.89-11.7 15.43-25.45 29.18-40.88 40.89 15.43 11.7 29.18 25.46 40.88 40.88z"/>
				<path id="&lt;Path&gt;" class="s1" d="m619 78.49c0-5.92-2.18-11.98-7.6-17.82-7.8-10.01-20.54-10.01-28.35 0l-0.47 0.59-0.47-0.59c-7.81-10.01-20.55-10.01-28.35 0-5.42 5.84-7.6 11.9-7.6 17.82 0 21.66 29.07 41.88 35.74 46.25q0.4 0.24 0.68 0.43 0.28-0.19 0.68-0.43c6.67-4.37 35.74-24.59 35.74-46.25z"/>
				<path id="&lt;Path&gt;" class="s1" d="m421.24 99.95c3.33 4.62 9.04 7.66 15.53 7.66 10.3 0 18.64-7.65 18.64-17.1 0-9.44-8.34-17.1-18.64-17.1q-1.6 0.01-3.13 0.26c0.72-2.05 1.13-4.25 1.13-6.54 0-11.01-8.99-19.94-20.08-19.94-11.09 0-20.09 8.93-20.09 19.94 0 2.29 0.41 4.49 1.13 6.54q-1.53-0.25-3.13-0.26c-10.3 0-18.64 7.66-18.64 17.1 0 9.45 8.34 17.1 18.64 17.1 6.64 0 12.46-3.2 15.76-8 1.26 5.53 0.8 13.07-6.85 20.11h12.5 1.64 12.5c-7.5-6.9-8.08-14.28-6.91-19.77z"/>
				<path id="&lt;Path&gt;" class="s1" d="m478.12 19.52c6.65 0 12.46-3.19 15.75-7.99 1.28 5.52 0.83 13.06-6.83 20.1h10.27 2.62 10.27c-7.66-7.04-8.11-14.58-6.83-20.1 3.29 4.8 9.1 7.99 15.75 7.99 10.18 0 16.88-11.13 13.48-19.52h-67.96c-3.4 8.39 3.3 19.52 13.48 19.52z"/>
				<path id="&lt;Path&gt;" class="s1" d="m837.16 961.68q-0.74-0.6-1.3-1.03c-0.37 0.26-0.8 0.63-1.31 1.03-6.34 5.16-22.61 19.64-31.52 38.32h65.65c-8.91-18.7-25.18-33.16-31.52-38.32z"/>
				<path id="&lt;Path&gt;" class="s1" d="m836.92 789.63c-11.7 15.42-25.46 29.18-40.89 40.88 15.43 11.7 29.19 25.46 40.89 40.89 11.7-15.43 25.46-29.19 40.88-40.89-15.42-11.7-29.18-25.46-40.88-40.88z"/>
				<path id="&lt;Path&gt;" class="s1" d="m919.82 792.07q0.27-0.18 0.67-0.43c6.68-4.37 35.75-24.58 35.75-46.24 0-5.93-2.19-11.98-7.6-17.83-7.8-10.01-20.55-10.01-28.35 0l-0.47 0.6-0.48-0.6c-7.8-10.01-20.54-10.01-28.35 0-5.41 5.85-7.59 11.9-7.59 17.83 0 21.66 29.07 41.87 35.74 46.24q0.4 0.25 0.68 0.43z"/>
				<path id="&lt;Path&gt;" class="s1" d="m738.74 786.62h12.5 1.65 12.5c-7.51-6.89-8.09-14.27-6.92-19.77 3.34 4.62 9.05 7.67 15.54 7.67 10.29 0 18.64-7.66 18.64-17.11 0-9.44-8.35-17.1-18.64-17.1q-1.61 0.01-3.14 0.26c0.72-2.05 1.13-4.24 1.13-6.54 0-11.01-8.99-19.94-20.08-19.94-11.09 0-20.08 8.93-20.08 19.94 0 2.3 0.41 4.49 1.13 6.54q-1.53-0.25-3.14-0.26c-10.29 0-18.64 7.66-18.64 17.1 0 9.45 8.35 17.11 18.64 17.11 6.64 0 12.46-3.2 15.76-8 1.26 5.52 0.81 13.07-6.85 20.1z"/>
				<path id="&lt;Path&gt;" class="s1" d="m824.27 698.53h10.28 2.61 10.28c-7.66-7.04-8.12-14.58-6.84-20.09 3.29 4.79 9.1 7.98 15.75 7.98 10.29 0 17.05-11.38 13.38-19.8-8.62-19.79-25.98-35.19-32.57-40.56q-0.74-0.59-1.3-1.03c-0.37 0.27-0.8 0.64-1.31 1.03-6.59 5.37-23.95 20.8-32.57 40.56-3.67 8.42 3.09 19.8 13.38 19.8 6.65 0 12.46-3.19 15.75-7.98 1.28 5.51 0.82 13.05-6.84 20.09z"/>
				<path id="&lt;Path&gt;" class="s1" d="m1168.78 789.63c-11.7 15.42-25.46 29.18-40.89 40.88 15.43 11.7 29.19 25.46 40.89 40.89 11.7-15.43 25.46-29.19 40.88-40.89-15.42-11.7-29.18-25.46-40.88-40.88z"/>
				<path id="&lt;Path&gt;" class="s1" d="m1251.67 792.07q0.28-0.18 0.68-0.43c6.68-4.37 35.75-24.58 35.75-46.24 0-5.93-2.19-11.98-7.6-17.83-7.8-10.01-20.55-10.01-28.35 0l-0.48 0.6-0.47-0.6c-7.8-10.01-20.55-10.01-28.35 0-5.41 5.85-7.59 11.9-7.59 17.83 0 21.66 29.07 41.87 35.74 46.24q0.4 0.25 0.67 0.43z"/>
				<path id="&lt;Path&gt;" class="s1" d="m1070.6 786.62h12.5 1.65 12.5c-7.51-6.89-8.09-14.27-6.92-19.77 3.34 4.62 9.05 7.67 15.54 7.67 10.29 0 18.64-7.66 18.64-17.11 0-9.44-8.35-17.1-18.64-17.1q-1.61 0.01-3.14 0.26c0.72-2.05 1.13-4.24 1.13-6.54 0-11.01-8.99-19.94-20.08-19.94-11.09 0-20.08 8.93-20.08 19.94 0 2.3 0.41 4.49 1.13 6.54q-1.53-0.25-3.14-0.26c-10.29 0-18.64 7.66-18.64 17.1 0 9.45 8.35 17.11 18.64 17.11 6.64 0 12.46-3.2 15.76-8 1.26 5.52 0.81 13.07-6.85 20.1z"/>
				<path id="&lt;Path&gt;" class="s1" d="m1156.13 698.53h10.28 2.61 10.28c-7.66-7.04-8.12-14.58-6.84-20.09 3.29 4.79 9.1 7.98 15.75 7.98 10.29 0 17.05-11.38 13.38-19.8-8.62-19.79-25.98-35.19-32.57-40.56q-0.74-0.59-1.3-1.03c-0.37 0.27-0.8 0.64-1.31 1.03-6.59 5.37-23.95 20.8-32.57 40.56-3.67 8.42 3.09 19.8 13.38 19.8 6.65 0 12.45-3.19 15.75-7.98 1.28 5.51 0.82 13.05-6.84 20.09z"/>
				<path id="&lt;Path&gt;" class="s1" d="m1169.02 961.68q-0.74-0.6-1.3-1.03c-0.37 0.26-0.8 0.63-1.31 1.03-6.34 5.16-22.61 19.64-31.52 38.32h65.65c-8.91-18.7-25.18-33.16-31.52-38.32z"/>
				<path id="&lt;Path&gt;" class="s1" d="m877.8 499.4c-15.42-11.7-29.18-25.46-40.88-40.88-11.7 15.42-25.46 29.18-40.89 40.88 15.43 11.7 29.19 25.46 40.89 40.89 11.7-15.43 25.46-29.19 40.88-40.89z"/>
				<path id="&lt;Path&gt;" class="s1" d="m919.82 460.96q0.27-0.18 0.67-0.43c6.68-4.36 35.75-24.58 35.75-46.24 0-5.93-2.19-11.98-7.6-17.83-7.8-10-20.55-10-28.35 0l-0.47 0.6-0.48-0.6c-7.8-10-20.54-10-28.35 0-5.41 5.85-7.59 11.9-7.59 17.83 0 21.66 29.07 41.88 35.74 46.24q0.4 0.25 0.68 0.43z"/>
				<path id="&lt;Path&gt;" class="s1" d="m738.74 455.51h12.5 1.65 12.5c-7.51-6.89-8.09-14.27-6.92-19.77 3.34 4.62 9.05 7.67 15.54 7.67 10.29 0 18.64-7.66 18.64-17.1 0-9.45-8.35-17.11-18.64-17.11q-1.61 0.01-3.14 0.26c0.72-2.05 1.13-4.24 1.13-6.54 0-11.01-8.99-19.94-20.08-19.94-11.09 0-20.08 8.93-20.08 19.94 0 2.3 0.41 4.49 1.13 6.54q-1.53-0.25-3.14-0.26c-10.29 0-18.64 7.66-18.64 17.11 0 9.44 8.35 17.1 18.64 17.1 6.64 0 12.46-3.2 15.76-8 1.26 5.52 0.81 13.07-6.85 20.1z"/>
				<path id="&lt;Path&gt;" class="s1" d="m801.98 335.51c-3.67 8.42 3.09 19.81 13.38 19.81 6.65 0 12.46-3.19 15.75-7.99 1.28 5.52 0.82 13.05-6.84 20.09h10.28 2.61 10.28c-7.66-7.04-8.12-14.57-6.84-20.09 3.29 4.8 9.1 7.99 15.75 7.99 10.29 0 17.05-11.39 13.38-19.81-8.62-19.78-25.98-35.18-32.57-40.56q-0.74-0.59-1.3-1.03c-0.37 0.27-0.8 0.64-1.31 1.03-6.59 5.38-23.95 20.8-32.57 40.56z"/>
				<path id="&lt;Path&gt;" class="s1" d="m836.92 200.17c11.7-15.43 25.46-29.18 40.88-40.89-15.42-11.7-29.18-25.46-40.88-40.88-11.7 15.42-25.46 29.18-40.89 40.88 15.43 11.71 29.19 25.46 40.89 40.89z"/>
				<path id="&lt;Path&gt;" class="s1" d="m919.82 120.84q0.27-0.18 0.67-0.43c6.68-4.36 35.75-24.58 35.75-46.24 0-5.93-2.19-11.98-7.6-17.83-7.8-10-20.55-10-28.35 0l-0.47 0.6-0.48-0.6c-7.8-10-20.54-10-28.35 0-5.41 5.85-7.59 11.9-7.59 17.83 0 21.66 29.07 41.88 35.74 46.24q0.4 0.25 0.68 0.43z"/>
				<path id="&lt;Path&gt;" class="s1" d="m738.74 115.4h12.5 1.65 12.5c-7.51-6.9-8.09-14.28-6.92-19.78 3.34 4.62 9.05 7.67 15.54 7.67 10.29 0 18.64-7.66 18.64-17.1 0-9.45-8.35-17.11-18.64-17.11q-1.61 0.02-3.14 0.27c0.72-2.06 1.13-4.25 1.13-6.54 0-11.02-8.99-19.95-20.08-19.95-11.09 0-20.08 8.93-20.08 19.95 0 2.29 0.41 4.48 1.13 6.54q-1.53-0.25-3.14-0.27c-10.29 0-18.64 7.66-18.64 17.11 0 9.44 8.35 17.1 18.64 17.1 6.64 0 12.46-3.2 15.76-8 1.26 5.52 0.81 13.07-6.85 20.11z"/>
				<path id="&lt;Path&gt;" class="s1" d="m815.36 15.2c6.65 0 12.46-3.19 15.75-7.99 1.28 5.52 0.82 13.05-6.84 20.09h10.28 2.61 10.28c-7.66-7.04-8.12-14.57-6.84-20.09 3.29 4.8 9.1 7.99 15.75 7.99 8.5 0 14.56-7.76 14.37-15.2h-69.73c-0.19 7.44 5.87 15.2 14.37 15.2z"/>
				<path id="&lt;Path&gt;" class="s1" d="m1494.88 967.76c-0.37 0.27-0.8 0.64-1.32 1.03-5.5 4.49-18.52 16.01-27.68 31.21h34.12v-27.95c-1.48-1.31-2.8-2.42-3.82-3.26q-0.75-0.59-1.3-1.03z"/>
				<path id="&lt;Path&gt;" class="s1" d="m35.79 0h-35.79v36.4c10.43-13.53 22.44-25.75 35.79-36.4z"/>
				<path id="&lt;Path&gt;" class="s1" d="m39.9 332.14c-15.01-11.38-28.41-24.72-39.9-39.63v79.25c11.49-14.91 24.89-28.24 39.9-39.62z"/>
				<path id="&lt;Path&gt;" class="s1" d="m118.33 247.02c0-5.92-2.18-11.98-7.6-17.82-7.8-10.01-20.55-10.01-28.35 0l-0.47 0.59-0.48-0.59c-7.8-10.01-20.54-10.01-28.35 0-5.41 5.84-7.59 11.9-7.59 17.82 0 21.66 29.07 41.88 35.74 46.25q0.4 0.24 0.68 0.43 0.28-0.19 0.68-0.43c6.67-4.37 35.74-24.59 35.74-46.25z"/>
				<path id="&lt;Path&gt;" class="s1" d="m2.69 180.06c3.3 4.8 9.1 7.99 15.75 7.99 10.3 0 17.05-11.38 13.38-19.8-8.33-19.11-24.77-34.1-31.82-39.94v71.85h9.53c-7.66-7.04-8.11-14.58-6.84-20.1z"/>
				<path id="&lt;Path&gt;" class="s1" d="m333.87 37.66c10.65-14.04 23.02-26.68 36.78-37.66h-73.56c13.77 10.98 26.13 23.62 36.78 37.66z"/>
				<path id="&lt;Path&gt;" class="s1" d="m292.99 332.14c15.42 11.7 29.18 25.46 40.88 40.88 11.71-15.42 25.46-29.18 40.89-40.88-15.43-11.71-29.18-25.46-40.89-40.89-11.7 15.43-25.46 29.18-40.88 40.89z"/>
				<path id="&lt;Path&gt;" class="s1" d="m416.3 229.2c-7.81-10.01-20.55-10.01-28.35 0-5.42 5.84-7.6 11.9-7.6 17.82 0 21.66 29.07 41.88 35.74 46.25q0.4 0.24 0.68 0.43 0.28-0.19 0.68-0.43c6.67-4.37 35.74-24.59 35.74-46.25 0-5.92-2.18-11.98-7.6-17.82-7.8-10.01-20.54-10.01-28.35 0l-0.47 0.59z"/>
				<path id="&lt;Path&gt;" class="s1" d="m228.79 235.66c0 2.29 0.41 4.49 1.13 6.54q-1.53-0.25-3.14-0.26c-10.29 0-18.64 7.66-18.64 17.1 0 9.45 8.35 17.1 18.64 17.1 6.65 0 12.47-3.2 15.77-8 1.26 5.53 0.8 13.07-6.85 20.11h12.5 1.64 12.5c-7.5-6.9-8.08-14.28-6.92-19.77 3.34 4.62 9.05 7.66 15.54 7.66 10.3 0 18.64-7.65 18.64-17.1 0-9.44-8.34-17.1-18.64-17.1q-1.6 0.01-3.13 0.26c0.72-2.05 1.13-4.25 1.13-6.54 0-11.01-9-19.94-20.09-19.94-11.09 0-20.08 8.93-20.08 19.94z"/>
				<path id="&lt;Path&gt;" class="s1" d="m312.31 188.05c6.65 0 12.46-3.19 15.75-7.99 1.28 5.52 0.83 13.06-6.83 20.1h10.27 2.62 10.27c-7.66-7.04-8.11-14.58-6.84-20.1 3.3 4.8 9.1 7.99 15.75 7.99 10.3 0 17.05-11.38 13.39-19.8-8.63-19.79-25.98-35.19-32.57-40.56q-0.74-0.59-1.3-1.03c-0.37 0.27-0.8 0.64-1.32 1.03-6.59 5.37-23.94 20.79-32.57 40.56-3.66 8.42 3.09 19.8 13.38 19.8z"/>
				<path id="&lt;Path&gt;" class="s1" d="m39.9 661.91c-15.01-11.38-28.41-24.71-39.9-39.62v79.25c11.49-14.91 24.89-28.25 39.9-39.63z"/>
				<path id="&lt;Path&gt;" class="s1" d="m118.33 576.8c0-5.93-2.18-11.98-7.6-17.83-7.8-10-20.55-10-28.35 0l-0.47 0.6-0.48-0.6c-7.8-10-20.54-10-28.35 0-5.41 5.85-7.59 11.9-7.59 17.83 0 21.66 29.07 41.88 35.74 46.24q0.4 0.25 0.68 0.43 0.28-0.18 0.68-0.43c6.67-4.36 35.74-24.58 35.74-46.24z"/>
				<path id="&lt;Path&gt;" class="s1" d="m2.69 509.84c3.3 4.8 9.1 7.99 15.75 7.99 10.3 0 17.05-11.39 13.38-19.81-8.33-19.1-24.77-34.09-31.82-39.94v71.85h9.53c-7.66-7.04-8.11-14.57-6.84-20.09z"/>
				<path id="&lt;Path&gt;" class="s1" d="m374.76 661.91c-15.43-11.7-29.18-25.46-40.89-40.88-11.7 15.42-25.46 29.18-40.88 40.88 15.42 11.71 29.18 25.46 40.88 40.89 11.71-15.43 25.46-29.18 40.89-40.89z"/>
				<path id="&lt;Path&gt;" class="s1" d="m453.19 576.8c0-5.93-2.18-11.98-7.6-17.83-7.8-10-20.54-10-28.35 0l-0.47 0.6-0.47-0.6c-7.81-10-20.55-10-28.35 0-5.42 5.85-7.6 11.9-7.6 17.83 0 21.66 29.07 41.88 35.74 46.24q0.4 0.25 0.68 0.43 0.28-0.18 0.68-0.43c6.67-4.36 35.74-24.58 35.74-46.24z"/>
				<path id="&lt;Path&gt;" class="s1" d="m226.78 605.92c6.65 0 12.47-3.2 15.77-8 1.26 5.52 0.8 13.07-6.85 20.11h12.5 1.64 12.5c-7.5-6.9-8.08-14.28-6.92-19.78 3.34 4.62 9.05 7.67 15.54 7.67 10.3 0 18.64-7.66 18.64-17.1 0-9.45-8.34-17.11-18.64-17.11q-1.6 0.02-3.13 0.27c0.72-2.06 1.13-4.25 1.13-6.54 0-11.02-9-19.95-20.09-19.95-11.09 0-20.08 8.93-20.08 19.95 0 2.29 0.41 4.48 1.13 6.54q-1.53-0.25-3.14-0.27c-10.29 0-18.64 7.66-18.64 17.11 0 9.44 8.35 17.1 18.64 17.1z"/>
				<path id="&lt;Path&gt;" class="s1" d="m344.39 529.93c-7.66-7.04-8.11-14.57-6.84-20.09 3.3 4.8 9.1 7.99 15.75 7.99 10.3 0 17.05-11.39 13.39-19.81-8.63-19.78-25.98-35.18-32.57-40.56q-0.74-0.59-1.3-1.03c-0.37 0.27-0.8 0.64-1.32 1.03-6.59 5.38-23.94 20.8-32.57 40.56-3.66 8.42 3.09 19.81 13.38 19.81 6.65 0 12.46-3.19 15.75-7.99 1.28 5.52 0.83 13.05-6.83 20.09h10.27 2.62z"/>
				<path id="&lt;Path&gt;" class="s1" d="m0 951.06v48.94h28.47q5.55-4.85 11.43-9.32c-15.01-11.38-28.41-24.71-39.9-39.62z"/>
				<path id="&lt;Path&gt;" class="s1" d="m82.38 887.74l-0.47 0.6-0.48-0.6c-7.8-10-20.54-10-28.35 0-5.41 5.85-7.59 11.9-7.59 17.83 0 21.66 29.07 41.88 35.74 46.24q0.4 0.25 0.68 0.44 0.28-0.19 0.68-0.44c6.67-4.36 35.74-24.58 35.74-46.24 0-5.93-2.18-11.98-7.6-17.83-7.8-10-20.55-10-28.35 0z"/>
				<path id="&lt;Path&gt;" class="s1" d="m2.69 838.61c3.3 4.8 9.1 7.99 15.75 7.99 10.3 0 17.05-11.39 13.38-19.81-8.33-19.1-24.77-34.09-31.82-39.94v71.85h9.53c-7.66-7.04-8.11-14.57-6.84-20.09z"/>
				<path id="&lt;Path&gt;" class="s1" d="m333.87 949.8c-11.7 15.43-25.46 29.18-40.88 40.88q5.88 4.47 11.43 9.32h58.91q5.55-4.85 11.43-9.32c-15.43-11.7-29.18-25.45-40.89-40.88z"/>
				<path id="&lt;Path&gt;" class="s1" d="m416.3 887.74c-7.81-10-20.55-10-28.35 0-5.42 5.85-7.6 11.9-7.6 17.83 0 21.66 29.07 41.88 35.74 46.24q0.4 0.25 0.68 0.44 0.28-0.19 0.68-0.44c6.67-4.36 35.74-24.58 35.74-46.24 0-5.93-2.18-11.98-7.6-17.83-7.8-10-20.54-10-28.35 0l-0.47 0.6z"/>
				<path id="&lt;Path&gt;" class="s1" d="m228.79 894.21c0 2.29 0.41 4.49 1.13 6.54q-1.53-0.25-3.14-0.26c-10.29 0-18.64 7.65-18.64 17.1 0 9.44 8.35 17.1 18.64 17.1 6.65 0 12.47-3.2 15.77-8 1.26 5.53 0.8 13.07-6.85 20.11h12.5 1.64 12.5c-7.5-6.9-8.08-14.28-6.92-19.77 3.34 4.61 9.05 7.66 15.54 7.66 10.3 0 18.64-7.66 18.64-17.1 0-9.45-8.34-17.1-18.64-17.1q-1.6 0.01-3.13 0.26c0.72-2.05 1.13-4.25 1.13-6.54 0-11.02-9-19.94-20.09-19.94-11.09 0-20.08 8.92-20.08 19.94z"/>
				<path id="&lt;Path&gt;" class="s1" d="m366.69 826.79c-8.63-19.78-25.98-35.18-32.57-40.55q-0.74-0.6-1.3-1.03c-0.37 0.26-0.8 0.63-1.32 1.03-6.59 5.37-23.94 20.79-32.57 40.55-3.66 8.42 3.09 19.81 13.38 19.81 6.65 0 12.46-3.19 15.75-7.99 1.28 5.52 0.83 13.05-6.83 20.09h10.27 2.62 10.27c-7.66-7.04-8.11-14.57-6.84-20.09 3.3 4.8 9.1 7.99 15.75 7.99 10.3 0 17.05-11.39 13.39-19.81z"/>
				<path id="&lt;Path&gt;" class="s1" d="m167.44 961.68q-0.74-0.6-1.3-1.03c-0.37 0.26-0.8 0.63-1.32 1.03-6.33 5.16-22.61 19.64-31.52 38.32h65.66c-8.91-18.7-25.19-33.16-31.52-38.32z"/>
				<path id="&lt;Path&gt;" class="s1" d="m167.19 789.63c-11.7 15.42-25.46 29.18-40.88 40.88 15.42 11.7 29.18 25.46 40.88 40.89 11.71-15.43 25.46-29.19 40.89-40.89-15.43-11.7-29.18-25.46-40.89-40.88z"/>
				<path id="&lt;Path&gt;" class="s1" d="m286.51 745.4c0-5.93-2.18-11.98-7.6-17.83-7.8-10.01-20.54-10.01-28.35 0l-0.47 0.6-0.47-0.6c-7.81-10.01-20.55-10.01-28.35 0-5.42 5.85-7.6 11.9-7.6 17.83 0 21.66 29.07 41.87 35.74 46.24q0.4 0.25 0.68 0.43 0.28-0.18 0.68-0.43c6.67-4.37 35.74-24.58 35.74-46.24z"/>
				<path id="&lt;Path&gt;" class="s1" d="m88.74 766.85c3.34 4.62 9.05 7.67 15.54 7.67 10.3 0 18.64-7.66 18.64-17.11 0-9.44-8.34-17.1-18.64-17.1q-1.6 0.01-3.13 0.26c0.72-2.05 1.12-4.24 1.12-6.54 0-11.01-8.99-19.94-20.08-19.94-11.09 0-20.08 8.93-20.08 19.94 0 2.3 0.41 4.49 1.13 6.54q-1.53-0.25-3.14-0.26c-10.29 0-18.64 7.66-18.64 17.1 0 9.45 8.35 17.11 18.64 17.11 6.65 0 12.47-3.2 15.77-8 1.26 5.52 0.8 13.07-6.85 20.1h12.5 1.64 12.5c-7.5-6.9-8.08-14.27-6.92-19.77z"/>
				<path id="&lt;Path&gt;" class="s1" d="m145.63 686.42c6.65 0 12.46-3.19 15.75-7.98 1.28 5.51 0.83 13.05-6.83 20.09h10.27 2.62 10.27c-7.66-7.04-8.11-14.58-6.84-20.09 3.3 4.79 9.1 7.98 15.75 7.98 10.3 0 17.05-11.38 13.39-19.8-8.63-19.79-25.99-35.19-32.57-40.56q-0.74-0.59-1.3-1.03c-0.37 0.27-0.8 0.64-1.32 1.03-6.59 5.37-23.94 20.8-32.57 40.56-3.66 8.42 3.09 19.8 13.38 19.8z"/>
				<path id="&lt;Path&gt;" class="s1" d="m167.19 540.29c11.71-15.43 25.46-29.19 40.89-40.89-15.43-11.7-29.18-25.46-40.89-40.88-11.7 15.42-25.46 29.18-40.88 40.88 15.42 11.7 29.18 25.46 40.88 40.89z"/>
				<path id="&lt;Path&gt;" class="s1" d="m278.91 396.46c-7.8-10-20.54-10-28.35 0l-0.47 0.6-0.47-0.6c-7.81-10-20.55-10-28.35 0-5.42 5.85-7.6 11.9-7.6 17.83 0 21.66 29.07 41.88 35.74 46.24q0.4 0.25 0.68 0.43 0.28-0.18 0.68-0.43c6.67-4.36 35.74-24.58 35.74-46.24 0-5.93-2.18-11.98-7.6-17.83z"/>
				<path id="&lt;Path&gt;" class="s1" d="m88.74 435.74c3.34 4.62 9.05 7.67 15.54 7.67 10.3 0 18.64-7.66 18.64-17.1 0-9.45-8.34-17.11-18.64-17.11q-1.6 0.01-3.13 0.26c0.72-2.05 1.12-4.24 1.12-6.54 0-11.01-8.99-19.94-20.08-19.94-11.09 0-20.08 8.93-20.08 19.94 0 2.3 0.41 4.49 1.13 6.54q-1.53-0.25-3.14-0.26c-10.29 0-18.64 7.66-18.64 17.11 0 9.44 8.35 17.1 18.64 17.1 6.65 0 12.47-3.2 15.77-8 1.26 5.52 0.8 13.07-6.85 20.1h12.5 1.64 12.5c-7.5-6.89-8.08-14.27-6.92-19.77z"/>
				<path id="&lt;Path&gt;" class="s1" d="m164.82 294.95c-6.59 5.38-23.94 20.8-32.57 40.56-3.66 8.42 3.09 19.81 13.38 19.81 6.65 0 12.46-3.19 15.75-7.99 1.28 5.52 0.83 13.05-6.83 20.09h10.27 2.62 10.27c-7.66-7.04-8.11-14.57-6.84-20.09 3.3 4.8 9.1 7.99 15.75 7.99 10.3 0 17.05-11.39 13.39-19.81-8.63-19.78-25.99-35.18-32.57-40.56q-0.74-0.59-1.3-1.03c-0.37 0.27-0.8 0.64-1.32 1.03z"/>
				<path id="&lt;Path&gt;" class="s1" d="m167.19 200.17c11.71-15.43 25.46-29.18 40.89-40.89-15.43-11.7-29.18-25.46-40.89-40.88-11.7 15.42-25.46 29.18-40.88 40.88 15.42 11.71 29.18 25.46 40.88 40.89z"/>
				<path id="&lt;Path&gt;" class="s1" d="m286.51 74.17c0-5.93-2.18-11.98-7.6-17.83-7.8-10-20.54-10-28.35 0l-0.47 0.6-0.47-0.6c-7.81-10-20.55-10-28.35 0-5.42 5.85-7.6 11.9-7.6 17.83 0 21.66 29.07 41.88 35.74 46.24q0.4 0.25 0.68 0.43 0.28-0.18 0.68-0.43c6.67-4.36 35.74-24.58 35.74-46.24z"/>
				<path id="&lt;Path&gt;" class="s1" d="m88.74 95.62c3.34 4.62 9.05 7.67 15.54 7.67 10.3 0 18.64-7.66 18.64-17.1 0-9.45-8.34-17.11-18.64-17.11q-1.6 0.02-3.13 0.27c0.72-2.06 1.12-4.25 1.12-6.54 0-11.02-8.99-19.95-20.08-19.95-11.09 0-20.08 8.93-20.08 19.95 0 2.29 0.41 4.48 1.13 6.54q-1.53-0.25-3.14-0.27c-10.29 0-18.64 7.66-18.64 17.11 0 9.44 8.35 17.1 18.64 17.1 6.65 0 12.47-3.2 15.77-8 1.26 5.52 0.8 13.07-6.85 20.11h12.5 1.64 12.5c-7.5-6.9-8.08-14.28-6.92-19.78z"/>
				<path id="&lt;Path&gt;" class="s1" d="m145.63 15.2c6.65 0 12.46-3.19 15.75-7.99 1.28 5.52 0.83 13.05-6.83 20.09h10.27 2.62 10.27c-7.66-7.04-8.11-14.57-6.84-20.09 3.3 4.8 9.1 7.99 15.75 7.99 8.5 0 14.57-7.76 14.37-15.2h-69.72c-0.2 7.44 5.87 15.2 14.36 15.2z"/>
				<path id="&lt;Compound Path&gt;" fill-rule="evenodd" class="s1" d="m1499.06 918.22l0.94 0.95v-5.65l-0.94 0.94-81.35-81.34 81.35-81.35 0.94 0.94v-5.65l-0.94 0.95-81.35-81.35 81.35-81.35 0.94 0.94v-5.64l-0.94 0.94-81.35-81.35 81.35-81.35 0.94 0.94v-5.64l-0.94 0.94-81.35-81.35 81.35-81.34 0.94 0.94v-5.65l-0.94 0.95-81.35-81.35 81.35-81.35 0.94 0.94v-5.64l-0.94 0.94-81.35-81.35 0.83-0.83h-5.42l0.83 0.83-81.35 81.35-81.35-81.35 0.83-0.83h-5.42l0.83 0.83-81.35 81.35-81.34-81.35 0.82-0.83h-5.42l0.83 0.83-81.34 81.35-81.35-81.35 0.83-0.83h-5.42l0.83 0.83-81.35 81.35-81.35-81.35 0.83-0.83h-5.42l0.83 0.83-81.35 81.35-81.35-81.35 0.83-0.83h-5.42l0.83 0.83-81.35 81.35-81.35-81.35 0.83-0.83h-5.41l0.83 0.83-81.35 81.35-81.35-81.35 0.83-0.83h-5.42l0.83 0.83-81.35 81.35-81.35-81.35 0.83-0.83h-5.42l0.83 0.83-81.35 81.35-0.94-0.94v5.64l0.94-0.94 81.35 81.35-81.35 81.35-0.94-0.95v5.65l0.94-0.94 81.35 81.34-81.35 81.35-0.94-0.94v5.64l0.94-0.94 81.35 81.35-81.35 81.35-0.94-0.94v5.64l0.94-0.94 81.35 81.35-81.35 81.35-0.94-0.95v5.65l0.94-0.94 81.35 81.35-81.35 81.34-0.94-0.94v5.65l0.94-0.95 81.35 81.35-0.43 0.43h4.62l-0.43-0.43 81.35-81.35 81.35 81.35-0.43 0.43h4.62l-0.43-0.43 81.35-81.35 81.35 81.35-0.43 0.43h4.61l-0.43-0.43 81.35-81.35 81.35 81.35-0.42 0.43h4.61l-0.43-0.43 81.35-81.35 81.35 81.35-0.43 0.43h4.62l-0.43-0.43 81.35-81.35 81.35 81.35-0.43 0.43h4.62l-0.43-0.43 81.35-81.35 81.34 81.35-0.42 0.43h4.61l-0.42-0.43 81.34-81.35 81.35 81.35-0.43 0.43h4.62l-0.43-0.43 81.35-81.35 81.35 81.35-0.43 0.43h4.62l-0.43-0.43zm-1.88-168.34l-81.35 81.35-81.35-81.34 81.35-81.35zm-1165.21-166.46l-81.34 81.35-81.35-81.35 81.35-81.35zm-162.7-166.46l81.35-81.34 81.35 81.34-81.35 81.35zm83.23 83.23l81.35-81.35 81.35 81.35-81.35 81.35zm83.23-83.23l81.34-81.35 81.35 81.35-81.35 81.35zm81.35 85.11l81.35 81.35-81.35 81.34-81.35-81.34zm1.88-1.88l81.35-81.35 81.35 81.35-81.35 81.34zm83.23-83.23l81.35-81.34 81.35 81.34-81.35 81.35zm81.35 85.11l81.35 81.35-81.35 81.35-81.35-81.35zm1.88-1.88l81.35-81.35 81.35 81.35-81.35 81.35zm83.23-83.23l81.35-81.35 81.35 81.35-81.35 81.35zm81.35 85.11l81.35 81.34-81.35 81.35-81.35-81.34zm1.88-1.88l81.35-81.35 81.35 81.35-81.35 81.34zm83.23-83.23l81.35-81.34 81.34 81.34-81.34 81.35zm81.34 85.11l81.35 81.35-81.34 81.35-81.35-81.35zm1.88-1.88l81.34-81.35 81.35 81.35-81.35 81.35zm83.23-83.23l81.35-81.35 81.35 81.35-81.35 81.35zm81.35 85.11l81.35 81.34-81.35 81.35-81.35-81.35zm1.88-1.88l81.35-81.35 81.35 81.35-81.35 81.35zm83.23-83.23l81.35-81.35 81.34 81.35-81.34 81.35zm81.34 85.11l81.35 81.35-81.35 81.35-81.34-81.35zm1.88-1.88l81.34-81.35 81.35 81.35-81.35 81.35zm0-166.46l81.35-81.35 81.35 81.35-81.35 81.35zm-1.88-1.88l-81.35-81.35 81.35-81.35 81.35 81.35zm-1.88 1.88l-81.35 81.35-81.35-81.35 81.35-81.35zm-164.58-1.88l-81.34-81.35 81.34-81.35 81.35 81.35zm-1.88 1.88l-81.35 81.35-81.34-81.35 81.34-81.35zm-164.57-1.88l-81.35-81.34 81.35-81.35 81.35 81.35zm-1.88 1.88l-81.35 81.35-81.35-81.35 81.35-81.35zm-164.58-1.88l-81.35-81.35 81.35-81.35 81.35 81.35zm-1.88 1.88l-81.35 81.35-81.35-81.35 81.35-81.35zm-164.57-1.88l-81.35-81.35 81.35-81.35 81.34 81.35zm-1.88 1.88l-81.34 81.35-81.35-81.35 81.35-81.35zm-164.58-1.88l-81.35-81.34 81.35-81.35 81.35 81.35zm-1.88 1.88l-81.35 81.34-81.35-81.34 81.35-81.35zm-164.58-1.88l-81.35-81.35 81.35-81.35 81.35 81.35zm-1.88 1.88l-81.35 81.35-81.35-81.35 81.35-81.35zm0 166.46l-81.35 81.34-81.35-81.34 81.35-81.35zm0 166.45l-81.35 81.35-81.34-81.35 81.34-81.34zm1.88 1.88l81.35 81.35-81.35 81.34-81.34-81.34zm1.88-1.88l81.34-81.35 81.35 81.35-81.35 81.34zm164.58 1.88l81.35 81.35-81.35 81.35-81.35-81.35zm1.88-1.88l81.35-81.35 81.35 81.35-81.35 81.35zm164.58 1.88l81.35 81.35-81.35 81.35-81.35-81.35zm1.88-1.88l81.35-81.35 81.35 81.35-81.35 81.35zm164.58 1.88l81.35 81.34-81.35 81.35-81.35-81.35zm1.88-1.87l81.35-81.35 81.35 81.35-81.35 81.34zm164.58 1.88l81.35 81.35-81.35 81.35-81.35-81.35zm1.88-1.88l81.35-81.35 81.35 81.35-81.35 81.35zm164.57 1.88l81.35 81.35-81.34 81.35-81.35-81.35zm1.88-1.88l81.35-81.35 81.34 81.35-81.34 81.35zm164.57 1.88l81.35 81.34-81.35 81.35-81.35-81.34zm1.89-1.88l81.34-81.35 81.35 81.35-81.35 81.34zm245.93-83.23l-81.35 81.35-81.35-81.34 81.35-81.35zm0-166.46l-81.35 81.35-81.35-81.35 81.35-81.35zm0-166.45l-81.35 81.34-81.35-81.34 81.35-81.35zm-81.35-247.81l81.35 81.35-81.35 81.35-81.35-81.35zm-1.88 164.58l-81.35 81.35-81.35-81.35 81.35-81.35zm-164.58-164.58l81.35 81.35-81.35 81.35-81.34-81.35zm-1.89 164.58l-81.34 81.35-81.35-81.35 81.35-81.35zm-164.58-164.58l81.35 81.35-81.35 81.35-81.35-81.35zm-1.88 164.58l-81.35 81.35-81.34-81.35 81.34-81.35zm-164.57-164.58l81.35 81.35-81.35 81.35-81.35-81.35zm-1.88 164.58l-81.35 81.35-81.35-81.35 81.35-81.35zm-164.58-164.58l81.35 81.35-81.35 81.35-81.34-81.35zm-1.88 164.58l-81.35 81.35-81.35-81.35 81.35-81.35zm-164.58-164.58l81.35 81.35-81.35 81.35-81.35-81.35zm-1.88 164.58l-81.35 81.35-81.35-81.35 81.35-81.35zm-164.58-164.58l81.35 81.35-81.35 81.35-81.34-81.35zm-1.88 164.58l-81.35 81.35-81.35-81.35 81.35-81.35zm-164.58-164.58l81.35 81.35-81.35 81.35-81.35-81.35zm-1.88 164.58l-81.35 81.35-81.35-81.35 81.35-81.35zm-245.92-83.22l81.35-81.35 81.34 81.35-81.34 81.34zm0 166.46l81.34-81.35 81.35 81.35-81.35 81.35zm0 166.46l81.35-81.35 81.35 81.35-81.35 81.34zm0 166.46l81.35-81.35 81.35 81.35-81.35 81.35zm0 166.46l81.35-81.35 81.35 81.35-81.35 81.35zm81.35 247.8l-81.35-81.35 81.35-81.35 81.34 81.35zm1.88-164.57l81.35-81.35 81.35 81.35-81.35 81.34zm164.58 164.58l-81.35-81.35 81.35-81.35 81.35 81.35zm1.88-164.57l81.35-81.35 81.35 81.35-81.35 81.34zm164.57 164.58l-81.34-81.35 81.34-81.35 81.35 81.35zm1.88-164.58l81.35-81.34 81.35 81.34-81.35 81.35zm164.58 164.58l-81.35-81.35 81.35-81.35 81.35 81.35zm1.88-164.58l81.35-81.34 81.34 81.34-81.34 81.35zm164.57 164.58l-81.34-81.35 81.34-81.35 81.35 81.35zm1.88-164.58l81.35-81.35 81.35 81.35-81.35 81.35zm164.58 164.58l-81.35-81.35 81.35-81.35 81.35 81.35zm1.88-164.58l81.34-81.35 81.35 81.35-81.35 81.35zm164.58 164.57l-81.35-81.34 81.35-81.35 81.35 81.34zm1.88-164.57l81.35-81.35 81.34 81.35-81.34 81.34zm164.57 164.58l-81.35-81.35 81.35-81.35 81.35 81.35zm1.88-164.57l81.35-81.35 81.35 81.35-81.35 81.34zm83.23 83.23l81.34-81.35 81.36 81.35-81.35 81.35z"/>
			</g>
			<path id="&lt;Path&gt;" class="s2" d="m1500 174.17c-27.19-62.51-61.98-120.95-103.18-174.17h-1293.64c-41.2 53.22-75.99 111.66-103.18 174.17v651.66c27.19 62.51 61.98 120.95 103.18 174.17h1293.64c41.2-53.22 75.99-111.66 103.18-174.17z"/>
		</g>
	</g>
	<g id="OBJECTS">
	</g>
</svg>