<svg version="1.2" xmlns="http://www.w3.org/2000/svg" viewBox="0 0 992 970" width="992" height="970">
	<title>play_room_button01</title>
	<defs>
		<linearGradient id="g1" x2="1" gradientUnits="userSpaceOnUse" gradientTransform="matrix(0,-311.188,693.093,0,436.934,640.292)">
			<stop offset="0" stop-color="#ad2e3c"/>
			<stop offset="1" stop-color="#ce4343"/>
		</linearGradient>
		<linearGradient id="g2" x2="1" gradientUnits="userSpaceOnUse" gradientTransform="matrix(707.845,0,0,325.944,152.869,321.725)">
			<stop offset="0" stop-color="#be6d00"/>
			<stop offset=".523" stop-color="#fff57f"/>
			<stop offset=".994" stop-color="#de9700"/>
		</linearGradient>
		<clipPath clipPathUnits="userSpaceOnUse" id="cp1">
			<path d="m815.59 640.29h-655.34v-311.19h613.52c18.3 0 33.96 13.13 37.16 31.15l41.82 235.71c4.1 23.12-13.68 44.33-37.16 44.33z"/>
		</clipPath>
		<linearGradient id="g3" x2="1" gradientUnits="userSpaceOnUse" gradientTransform="matrix(0,-348.559,348.559,0,10.144,663.766)">
			<stop offset="0" stop-color="#bdc3c7"/>
			<stop offset="1" stop-color="#ffffff"/>
		</linearGradient>
		<clipPath clipPathUnits="userSpaceOnUse" id="cp2">
			<path d="m358.7 489.49c0 96.25-78.02 174.28-174.28 174.28-96.25 0-174.28-78.03-174.28-174.28 0-96.25 78.03-174.28 174.28-174.28 96.26 0 174.28 78.03 174.28 174.28z"/>
		</clipPath>
		<linearGradient id="g4" x2="1" gradientUnits="userSpaceOnUse" gradientTransform="matrix(0,-370.491,362.273,0,-5.024,674.733)">
			<stop offset=".114" stop-color="#16a085"/>
			<stop offset="1" stop-color="#62ffce"/>
		</linearGradient>
		<clipPath clipPathUnits="userSpaceOnUse" id="cp3">
			<path d="m356.62 489.49c0 95.1-77.09 172.2-172.2 172.2-95.1 0-172.2-77.1-172.2-172.2 0-95.11 77.1-172.2 172.2-172.2 95.11 0 172.2 77.09 172.2 172.2z"/>
		</clipPath>
		<linearGradient id="g5" x2="1" gradientUnits="userSpaceOnUse" gradientTransform="matrix(0,-366.074,357.953,0,-2.766,672.524)">
			<stop offset="0" stop-color="#ad2e3c"/>
			<stop offset="1" stop-color="#ce4343"/>
		</linearGradient>
		<linearGradient id="g6" x2="1" gradientUnits="userSpaceOnUse" gradientTransform="matrix(0,-370.294,363.933,0,-3.962,674.635)">
			<stop offset="0" stop-color="#be6d00"/>
			<stop offset="1" stop-color="#fff57f"/>
		</linearGradient>
		<linearGradient id="g7" x2="1" gradientUnits="userSpaceOnUse" gradientTransform="matrix(0,-252.322,252.32,0,58.259,615.648)">
			<stop offset="0" stop-color="#be6d00"/>
			<stop offset="1" stop-color="#fff57f"/>
		</linearGradient>
	</defs>
	<style>
		.s0 { fill: url(#g1) } 
		.s1 { opacity: .3;fill: #000000 } 
		.s2 { fill: url(#g2) } 
		.s3 { fill: #000000 } 
		.s4 { fill: url(#g3) } 
		.s5 { fill: url(#g4) } 
		.s6 { fill: #00a08f } 
		.s7 { fill: #ffffff } 
		.s8 { opacity: .7;fill: #ffffff } 
		.s9 { opacity: .1;fill: #000000 } 
		.s10 { fill: #333333 } 
		.s11 { fill: #212121 } 
		.s12 { fill: url(#g5) } 
		.s13 { fill: url(#g6) } 
		.s14 { fill: url(#g7) } 
		.s15 { opacity: .5;fill: #ffffff } 
		.s16 { opacity: .2;fill: #000000 } 
	</style>
	<g id="play_room_button01">
		<path id="&lt;Path&gt;" class="s0" d="m815.59 640.29h-655.34v-311.19h613.52c18.3 0 33.96 13.13 37.16 31.15l41.82 235.71c4.1 23.12-13.68 44.33-37.16 44.33z"/>
		<path id="&lt;Compound Path&gt;" fill-rule="evenodd" class="s1" d="m810.93 360.25l41.82 235.71c4.1 23.12-13.68 44.33-37.16 44.33h-655.34v-311.19h613.52c18.3 0 33.96 13.13 37.16 31.15zm-641.26-21.73v292.35h645.92c8.4 0 16.31-3.69 21.71-10.12 5.39-6.44 7.64-14.87 6.18-23.14l-41.82-235.72c-2.41-13.54-14.13-23.37-27.89-23.37z"/>
		<path id="&lt;Compound Path&gt;" fill-rule="evenodd" class="s2" d="m818.2 358.96l41.82 235.71c2.33 13.18-1.26 26.61-9.85 36.87-8.59 10.25-21.2 16.13-34.58 16.13h-662.72v-325.94h620.9c21.92 0 40.6 15.65 44.43 37.23zm-657.95-29.86v311.19h655.34c23.48 0 41.26-21.21 37.16-44.33l-41.82-235.71c-3.2-18.02-18.86-31.15-37.16-31.15z"/>
		<g id="&lt;Clip Group&gt;" clip-path="url(#cp1)" style="opacity: .1">
			<g id="&lt;Group&gt;">
				<path id="&lt;Path&gt;" class="s3" d="m560.65 915.51l-53.86 53.85-53.85-53.85 53.85-53.85z"/>
				<path id="&lt;Path&gt;" class="s3" d="m668.35 807.81l-53.85 53.85-53.85-53.85 53.85-53.86z"/>
				<path id="&lt;Path&gt;" class="s3" d="m560.65 807.81l-53.86 53.85-53.85-53.85 53.85-53.86z"/>
				<path id="&lt;Path&gt;" class="s3" d="m776.05 700.1l-53.85 53.85-53.85-53.85 53.85-53.85z"/>
				<path id="&lt;Path&gt;" class="s3" d="m668.35 700.1l-53.85 53.85-53.85-53.85 53.85-53.85z"/>
				<path id="&lt;Path&gt;" class="s3" d="m452.94 807.81l-53.85 53.85-53.85-53.85 53.85-53.86z"/>
				<path id="&lt;Path&gt;" class="s3" d="m560.65 700.1l-53.86 53.85-53.85-53.85 53.85-53.85z"/>
				<path id="&lt;Path&gt;" class="s3" d="m452.94 700.1l-53.85 53.85-53.85-53.85 53.85-53.85z"/>
				<path id="&lt;Path&gt;" class="s3" d="m668.35 592.4l-53.85 53.85-53.85-53.85 53.85-53.85z"/>
				<path id="&lt;Path&gt;" class="s3" d="m345.24 700.1l-53.85 53.85-53.85-53.85 53.85-53.85z"/>
				<path id="&lt;Path&gt;" class="s3" d="m452.94 592.4l-53.85 53.85-53.85-53.85 53.85-53.85z"/>
				<path id="&lt;Path&gt;" class="s3" d="m560.65 484.7l-53.86 53.85-53.85-53.85 53.85-53.85z"/>
				<path id="&lt;Path&gt;" class="s3" d="m560.65 592.4l-53.86 53.85-53.85-53.85 53.85-53.85z"/>
				<path id="&lt;Path&gt;" class="s3" d="m883.75 592.4l-53.85 53.85-53.85-53.85 53.85-53.85z"/>
				<path id="&lt;Path&gt;" class="s3" d="m776.05 592.4l-53.85 53.85-53.85-53.85 53.85-53.85z"/>
				<path id="&lt;Path&gt;" class="s3" d="m991.46 484.7l-53.85 53.85-53.86-53.85 53.86-53.85z"/>
				<path id="&lt;Path&gt;" class="s3" d="m883.75 484.7l-53.85 53.85-53.85-53.85 53.85-53.85z"/>
				<path id="&lt;Path&gt;" class="s3" d="m776.05 484.7l-53.85 53.85-53.85-53.85 53.85-53.85z"/>
				<path id="&lt;Path&gt;" class="s3" d="m668.35 484.7l-53.85 53.85-53.85-53.85 53.85-53.85z"/>
				<path id="&lt;Path&gt;" class="s3" d="m883.75 376.99l-53.85 53.86-53.85-53.86 53.85-53.85z"/>
				<path id="&lt;Path&gt;" class="s3" d="m668.35 376.99l-53.85 53.86-53.85-53.86 53.85-53.85z"/>
				<path id="&lt;Path&gt;" class="s3" d="m776.05 269.29l-53.85 53.85-53.85-53.85 53.85-53.85z"/>
				<path id="&lt;Path&gt;" class="s3" d="m776.05 376.99l-53.85 53.86-53.85-53.86 53.85-53.85z"/>
				<path id="&lt;Path&gt;" class="s3" d="m345.24 592.4l-53.85 53.85-53.85-53.85 53.85-53.85z"/>
				<path id="&lt;Path&gt;" class="s3" d="m452.94 484.7l-53.85 53.85-53.85-53.85 53.85-53.85z"/>
				<path id="&lt;Path&gt;" class="s3" d="m237.54 592.4l-53.85 53.85-53.86-53.85 53.86-53.85z"/>
				<path id="&lt;Path&gt;" class="s3" d="m345.24 484.7l-53.85 53.85-53.85-53.85 53.85-53.85z"/>
				<path id="&lt;Path&gt;" class="s3" d="m237.54 484.7l-53.85 53.85-53.86-53.85 53.86-53.85z"/>
				<path id="&lt;Path&gt;" class="s3" d="m452.94 376.99l-53.85 53.86-53.85-53.86 53.85-53.85z"/>
				<path id="&lt;Path&gt;" class="s3" d="m129.83 484.7l-53.85 53.85-53.85-53.85 53.85-53.85z"/>
				<path id="&lt;Path&gt;" class="s3" d="m237.54 376.99l-53.85 53.86-53.86-53.86 53.86-53.85z"/>
				<path id="&lt;Path&gt;" class="s3" d="m345.24 269.29l-53.85 53.85-53.85-53.85 53.85-53.85z"/>
				<path id="&lt;Path&gt;" class="s3" d="m345.24 376.99l-53.85 53.86-53.85-53.86 53.85-53.85z"/>
				<path id="&lt;Path&gt;" class="s3" d="m560.65 376.99l-53.86 53.86-53.85-53.86 53.85-53.85z"/>
				<path id="&lt;Path&gt;" class="s3" d="m668.35 269.29l-53.85 53.85-53.85-53.85 53.85-53.85z"/>
				<path id="&lt;Path&gt;" class="s3" d="m560.65 269.29l-53.86 53.85-53.85-53.85 53.85-53.85z"/>
				<path id="&lt;Path&gt;" class="s3" d="m452.94 269.29l-53.85 53.85-53.85-53.85 53.85-53.85z"/>
				<path id="&lt;Path&gt;" class="s3" d="m668.35 161.59l-53.85 53.85-53.85-53.85 53.85-53.85z"/>
				<path id="&lt;Path&gt;" class="s3" d="m452.94 161.59l-53.85 53.85-53.85-53.85 53.85-53.85z"/>
				<path id="&lt;Path&gt;" class="s3" d="m560.65 53.89l-53.86 53.85-53.85-53.85 53.85-53.85z"/>
				<path id="&lt;Path&gt;" class="s3" d="m560.65 161.59l-53.86 53.85-53.85-53.85 53.85-53.85z"/>
			</g>
		</g>
		<g id="&lt;Group&gt;">
			<path id="&lt;Path&gt;" class="s4" d="m358.7 489.49c0 96.25-78.02 174.28-174.28 174.28-96.25 0-174.28-78.03-174.28-174.28 0-96.25 78.03-174.28 174.28-174.28 96.26 0 174.28 78.03 174.28 174.28z"/>
			<g id="&lt;Clip Group&gt;" clip-path="url(#cp2)">
				<path id="&lt;Path&gt;" class="s5" d="m365.56 432.73l-41.42-71.73-111.3 79.28 13-136.04h-82.83l13 136.04-111.3-79.28-41.42 71.73 124.31 56.76-124.31 56.75 41.42 71.74 111.3-79.28-13 136.03h82.83l-13-136.03 111.3 79.28 41.42-71.74-124.31-56.75z"/>
				<path id="&lt;Compound Path&gt;" fill-rule="evenodd" class="s6" d="m228.2 676.87h-87.54l12.78-133.72-109.41 77.94-43.77-75.81 122.2-55.79-122.2-55.79 43.77-75.81 109.41 77.93-12.78-133.71h87.54l-12.79 133.71 109.4-77.93 43.77 75.81-122.19 55.79 122.19 55.79-43.77 75.81-109.4-77.94zm-82.84-4.26h78.13l-13.23-138.36 113.21 80.63 39.06-67.67-126.42-57.72 126.42-57.72-39.06-67.67-113.21 80.63 13.23-138.35h-78.13l13.22 138.35-113.2-80.63-39.07 67.67 126.44 57.72-126.44 57.72 39.07 67.67 113.2-80.63z"/>
			</g>
			<path id="&lt;Path&gt;" class="s7" d="m308.9 489.49c0 68.74-55.73 124.48-124.48 124.48-68.74 0-124.47-55.74-124.47-124.48 0-68.75 55.73-124.48 124.47-124.48 68.75 0 124.48 55.73 124.48 124.48z"/>
			<path id="&lt;Compound Path&gt;" fill-rule="evenodd" class="s6" d="m184.42 617.17c-70.4 0-127.68-57.28-127.68-127.68 0-70.41 57.28-127.69 127.68-127.69 70.41 0 127.69 57.28 127.69 127.69 0 70.4-57.28 127.68-127.69 127.68zm0-248.96c-66.87 0-121.27 54.41-121.27 121.28 0 66.87 54.4 121.27 121.27 121.27 66.87 0 121.28-54.4 121.28-121.27 0-66.87-54.41-121.28-121.28-121.28z"/>
			<path id="&lt;Path&gt;" class="s8" d="m184.42 323.89c94.8 0 171.86 75.7 174.17 169.94 0.04-1.45 0.11-2.89 0.11-4.34 0-96.25-78.02-174.28-174.28-174.28-96.25 0-174.28 78.03-174.28 174.28 0 1.45 0.08 2.89 0.11 4.34 2.32-94.24 79.38-169.94 174.17-169.94z"/>
			<path id="&lt;Path&gt;" class="s9" d="m184.42 653.02c-94.44 0-171.29-75.15-174.14-168.91-0.05 1.79-0.14 3.57-0.14 5.38 0 96.25 78.03 174.28 174.28 174.28 96.26 0 174.28-78.03 174.28-174.28 0-1.81-0.08-3.59-0.13-5.38-2.85 93.76-79.7 168.91-174.15 168.91z"/>
		</g>
		<g id="&lt;Group&gt;">
			<g id="&lt;Group&gt;">
				<path id="&lt;Path&gt;" class="s10" d="m356.62 489.49c0 95.1-77.09 172.2-172.2 172.2-95.1 0-172.2-77.1-172.2-172.2 0-95.11 77.1-172.2 172.2-172.2 95.11 0 172.2 77.09 172.2 172.2z"/>
				<path id="&lt;Compound Path&gt;" fill-rule="evenodd" class="s11" d="m254.33 324.02c21.38 9.05 40.58 22 57.07 38.49 16.49 16.49 29.44 35.69 38.49 57.07 9.36 22.15 14.11 45.67 14.11 69.91 0 24.24-4.75 47.76-14.11 69.9-9.05 21.39-22 40.59-38.49 57.08-16.49 16.49-35.69 29.44-57.07 38.48-22.15 9.37-45.67 14.12-69.91 14.12-24.24 0-47.76-4.75-69.9-14.12-21.38-9.04-40.59-21.99-57.08-38.48-16.49-16.49-29.44-35.69-38.48-57.08-9.37-22.14-14.12-45.66-14.12-69.9 0-24.24 4.75-47.76 14.12-69.91 9.04-21.38 21.99-40.58 38.48-57.07 16.49-16.49 35.7-29.44 57.08-38.49 22.14-9.36 45.66-14.11 69.9-14.11 24.24 0 47.76 4.75 69.91 14.11zm-242.11 165.47c0 95.1 77.1 172.2 172.2 172.2 95.11 0 172.2-77.1 172.2-172.2 0-95.11-77.09-172.2-172.2-172.2-95.1 0-172.2 77.09-172.2 172.2z"/>
				<g id="&lt;Clip Group&gt;" clip-path="url(#cp3)">
					<path id="&lt;Path&gt;" class="s12" d="m363.4 433.41l-40.92-70.88-109.98 78.33 12.85-134.41h-81.85l12.85 134.41-109.98-78.33-40.92 70.88 122.83 56.08-122.83 56.07 40.92 70.89 109.98-78.34-12.85 134.41h81.85l-12.85-134.41 109.98 78.34 40.92-70.89-122.83-56.07z"/>
					<path id="&lt;Compound Path&gt;" fill-rule="evenodd" class="s13" d="m227.67 674.63h-86.49l12.63-132.12-108.11 77.01-43.25-74.91 120.74-55.12-120.74-55.12 43.25-74.91 108.11 77-12.63-132.12h86.49l-12.63 132.12 108.1-77 43.25 74.91-120.74 55.12 120.74 55.12-43.25 74.91-108.1-77.01zm-81.85-4.21h77.2l-13.07-136.71 111.85 79.67 38.6-66.86-124.92-57.03 124.92-57.04-38.6-66.86-111.85 79.67 13.07-136.7h-77.2l13.06 136.7-111.85-79.67-38.6 66.86 124.92 57.04-124.92 57.03 38.6 66.86 111.85-79.67z"/>
				</g>
				<path id="&lt;Path&gt;" class="s10" d="m307.42 489.49c0 67.93-55.07 122.99-123 122.99-67.93 0-122.99-55.06-122.99-122.99 0-67.93 55.06-123 122.99-123 67.93 0 123 55.07 123 123z"/>
				<path id="&lt;Compound Path&gt;" fill-rule="evenodd" class="s14" d="m184.42 615.65c-69.56 0-126.16-56.6-126.16-126.16 0-69.57 56.6-126.16 126.16-126.16 69.57 0 126.16 56.59 126.16 126.16 0 69.56-56.59 126.16-126.16 126.16zm0-245.99c-66.07 0-119.83 53.76-119.83 119.83 0 66.07 53.76 119.83 119.83 119.83 66.07 0 119.83-53.76 119.83-119.83 0-66.07-53.76-119.83-119.83-119.83z"/>
				<path id="&lt;Path&gt;" class="s15" d="m184.42 325.87c93.67 0 169.81 74.79 172.1 167.91 0.03-1.43 0.1-2.85 0.1-4.29 0-95.11-77.09-172.2-172.2-172.2-95.1 0-172.2 77.09-172.2 172.2 0 1.44 0.07 2.86 0.11 4.29 2.28-93.12 78.43-167.91 172.09-167.91z"/>
				<path id="&lt;Path&gt;" class="s16" d="m184.42 651.07c-93.32 0-169.25-74.25-172.06-166.89-0.06 1.76-0.14 3.53-0.14 5.31 0 95.1 77.1 172.2 172.2 172.2 95.11 0 172.2-77.1 172.2-172.2 0-1.78-0.08-3.55-0.13-5.31-2.81 92.64-78.74 166.89-172.07 166.89z"/>
				<path id="&lt;Path&gt;" class="s7" d="m126.55 515.81l57.82 42.15 57.88-42.07c16.35-11.88 22.43-33.42 14.71-52.11-9.23-22.33-34.82-32.95-57.15-23.72-5.99 2.48-11.17 6.17-15.36 10.7-4.19-4.53-9.36-8.24-15.35-10.72-22.32-9.26-47.92 1.32-57.18 23.64-7.75 18.67-1.7 40.22 14.63 52.13z"/>
			</g>
		</g>
		<g id="&lt;Group&gt;">
			<path id="&lt;Compound Path&gt;" fill-rule="evenodd" class="s7" d="m454.03 425.72v34.35h-18.14v-83.85h32.27q16.07 0 16.07 17.1v9.72q0 10.37-7.39 13.22 6.48 2.34 6.48 10.63v33.18h-18.14v-31.75q0-2.6-2.46-2.6zm0-37.19v24.49h9.59q1.03 0 1.75-0.78 0.71-0.77 0.71-1.81v-19.31q0-1.04-0.71-1.81-0.72-0.78-1.75-0.78z"/>
			<path id="&lt;Compound Path&gt;" fill-rule="evenodd" class="s7" d="m545.27 392.03v52.22q0 17.11-16.07 17.11h-17.24q-16.07 0-16.07-17.11v-52.22q0-17.11 16.07-17.11h17.24q16.07 0 16.07 17.11zm-18.15 54.3v-56.51q0-1.04-0.71-1.81-0.71-0.78-1.75-0.78h-8.16q-1.04 0-1.75 0.78-0.72 0.77-0.72 1.81v56.51q0 1.04 0.72 1.81 0.71 0.78 1.75 0.78h8.16q1.04 0 1.75-0.78 0.71-0.77 0.71-1.81z"/>
			<path id="&lt;Compound Path&gt;" fill-rule="evenodd" class="s7" d="m607.99 392.03v52.22q0 17.11-16.07 17.11h-17.23q-16.07 0-16.07-17.11v-52.22q0-17.11 16.07-17.11h17.23q16.07 0 16.07 17.11zm-18.14 54.3v-56.51q0-1.04-0.71-1.81-0.72-0.78-1.75-0.78h-8.17q-1.04 0-1.75 0.78-0.71 0.77-0.71 1.81v56.51q0 1.04 0.71 1.81 0.71 0.78 1.75 0.78h8.17q1.03 0 1.75-0.78 0.71-0.77 0.71-1.81z"/>
			<path id="&lt;Compound Path&gt;" class="s7" d="m639.35 460.07h-18.14v-68.04q0-17.11 16.07-17.11h9.59q9.46 0 13.48 6.22 3.76-6.22 13.48-6.22h9.59q16.07 0 16.07 17.11v68.04h-18.15v-69.6q0-1.04-0.71-1.81-0.71-0.78-1.75-0.78h-7q-1.04 0-1.75 0.78-0.71 0.77-0.71 1.81v69.6h-18.14v-69.6q0-1.04-0.72-1.81-0.71-0.78-1.74-0.78h-7q-1.04 0-1.75 0.78-0.72 0.77-0.72 1.81z"/>
		</g>
		<g id="&lt;Group&gt;">
			<path id="&lt;Compound Path&gt;" class="s7" d="m481.71 506.06v83.85h-17.62v-83.85z"/>
			<path id="&lt;Compound Path&gt;" fill-rule="evenodd" class="s7" d="m543.66 521.74v52.23q0 17.11-16.07 17.11h-15.42q-16.07 0-16.07-17.11v-52.23q0-17.1 16.07-17.1h15.42q16.07 0 16.07 17.1zm-17.63 54.31v-56.51q0-1.04-0.71-1.81-0.71-0.78-1.75-0.78h-7.39q-1.03 0-1.74 0.78-0.72 0.77-0.72 1.81v56.51q0 1.04 0.72 1.81 0.71 0.78 1.74 0.78h7.39q1.04 0 1.75-0.78 0.71-0.77 0.71-1.81z"/>
			<path id="&lt;Compound Path&gt;" fill-rule="evenodd" class="s7" d="m602.36 521.74v52.23q0 17.11-16.06 17.11h-15.43q-16.07 0-16.07-17.11v-52.23q0-17.1 16.07-17.1h15.43q16.06 0 16.06 17.1zm-17.62 54.31v-56.51q0-1.04-0.71-1.81-0.72-0.78-1.75-0.78h-7.39q-1.04 0-1.75 0.78-0.71 0.77-0.71 1.81v56.51q0 1.04 0.71 1.81 0.71 0.78 1.75 0.78h7.39q1.03 0 1.75-0.78 0.71-0.77 0.71-1.81z"/>
			<path id="&lt;Compound Path&gt;" fill-rule="evenodd" class="s7" d="m661.07 521.74v52.23q0 17.11-16.07 17.11h-15.42q-16.07 0-16.07-17.11v-52.23q0-17.1 16.07-17.1h15.42q16.07 0 16.07 17.1zm-17.63 54.31v-56.51q0-1.04-0.71-1.81-0.71-0.78-1.75-0.78h-7.39q-1.03 0-1.74 0.78-0.72 0.77-0.72 1.81v56.51q0 1.04 0.72 1.81 0.71 0.78 1.74 0.78h7.39q1.04 0 1.75-0.78 0.71-0.77 0.71-1.81z"/>
		</g>
	</g>
</svg>